<svg width="30" height="30" viewBox="0 0 30 30" fill="none" xmlns="http://www.w3.org/2000/svg">
<path d="M14.772 12.2775C14.2102 12.2762 13.6489 11.9952 13.1386 11.6541C12.6239 11.31 12.0937 10.8569 11.5872 10.4241L11.5727 10.4117C11.0519 9.9667 10.5558 9.54371 10.0853 9.22986C9.60542 8.90973 9.21822 8.74972 8.91419 8.75001L8.91379 8.75002C8.56079 8.75001 8.014 8.94848 7.3388 9.31704C6.68281 9.67513 5.96927 10.1573 5.30434 10.6465C4.64099 11.1345 4.03416 11.6233 3.59267 11.9907C3.37213 12.1742 3.19334 12.327 3.06994 12.4336C3.00878 12.4865 2.96125 12.528 2.92904 12.5563C2.93172 12.5682 2.93535 12.5822 2.94024 12.5986C2.98206 12.7386 3.08014 12.9312 3.21288 13.1364C3.32501 13.3097 3.44906 13.4723 3.55568 13.594C3.65241 13.5066 3.77346 13.3984 3.91416 13.275C4.29292 12.9427 4.81597 12.4987 5.39113 12.0538C5.96465 11.6101 6.5984 11.1589 7.1975 10.8167C7.77694 10.4857 8.39456 10.2142 8.91462 10.2142C9.45447 10.2142 10.0052 10.5122 10.5021 10.8601C10.991 11.2025 11.5046 11.6506 12.0013 12.084C12.0238 12.1036 12.0462 12.1231 12.0686 12.1427C12.5958 12.6025 13.104 13.0415 13.5841 13.3671C14.0755 13.7003 14.4691 13.8658 14.7705 13.8658C15.0718 13.8658 15.4657 13.7003 15.9574 13.367C16.4379 13.0414 16.9465 12.6024 17.474 12.1426C17.497 12.1225 17.5201 12.1024 17.5432 12.0822C18.0395 11.6494 18.5525 11.2021 19.0405 10.8602C19.537 10.5124 20.0873 10.2142 20.6263 10.2142C21.1379 10.2142 21.7448 10.4816 22.3127 10.8062C22.9003 11.1421 23.522 11.5848 24.0845 12.0201C24.6486 12.4565 25.1618 12.8921 25.5333 13.218C25.7143 13.3767 25.8621 13.5098 25.9665 13.6049C26.0819 13.5033 26.2227 13.3366 26.3488 13.1438C26.4777 12.9467 26.5698 12.7547 26.6072 12.6153C26.6128 12.5941 26.6166 12.5765 26.619 12.5625M14.772 12.2775C14.7719 12.2775 14.7718 12.2775 14.7717 12.2775L14.773 11.8608L14.772 12.2775ZM14.772 12.2775C15.3316 12.2791 15.8917 11.9987 16.4003 11.6588C16.9142 11.3152 17.4445 10.8619 17.9514 10.4286L17.9646 10.4173C18.4854 9.97207 18.9821 9.54831 19.4533 9.23339C19.9339 8.91213 20.322 8.75075 20.6265 8.75001L20.6266 8.75001C20.9824 8.74907 21.5307 8.94699 22.2062 9.31508C22.8627 9.67282 23.5759 10.155 24.2402 10.6444C24.9029 11.1326 25.5087 11.6219 25.9493 11.9896C26.1694 12.1733 26.3478 12.3262 26.4709 12.433C26.5324 12.4863 26.5801 12.5282 26.6123 12.5565L26.619 12.5625M26.619 12.5625C26.624 12.5339 26.6236 12.5195 26.6236 12.517C26.6236 12.5166 26.6236 12.5165 26.6236 12.5167C26.6247 12.5251 26.6332 12.5601 26.6631 12.5958L26.6631 12.5959C26.6749 12.6098 26.6899 12.6239 26.709 12.6365L26.6833 12.6196L26.6603 12.599L26.6603 12.599L26.6602 12.599L26.6597 12.5985L26.6576 12.5966L26.6486 12.5886L26.619 12.5625ZM14.7717 19.5483C15.3314 19.55 15.8917 19.2696 16.4003 18.9296C16.9142 18.5861 17.4445 18.1327 17.9514 17.6994L17.9646 17.6881C18.4854 17.2429 18.9821 16.8191 19.4533 16.5042C19.9339 16.183 20.322 16.0216 20.6265 16.0208L20.6266 16.0208C20.9824 16.0199 21.5307 16.2178 22.2062 16.5859C22.8627 16.9436 23.5759 17.4259 24.2402 17.9153C24.9029 18.4035 25.5087 18.8927 25.9493 19.2604C26.1694 19.4441 26.3478 19.597 26.4709 19.7038C26.5324 19.7572 26.5801 19.799 26.6123 19.8273L26.6184 19.8327C26.616 19.8453 26.6126 19.8606 26.6076 19.8788C26.5708 20.0139 26.4795 20.2009 26.351 20.3934C26.2251 20.5819 26.0845 20.7445 25.9697 20.8428C25.8651 20.7475 25.7161 20.6133 25.5333 20.453C25.1618 20.1271 24.6486 19.6915 24.0845 19.2551C23.522 18.8198 22.9003 18.3771 22.3127 18.0412C21.7448 17.7166 21.1379 17.4492 20.6263 17.4492C20.0873 17.4492 19.537 17.7474 19.0405 18.0952C18.5525 18.4371 18.0395 18.8844 17.5432 19.3173C17.5201 19.3374 17.497 19.3575 17.474 19.3776C16.9465 19.8374 16.4379 20.2764 15.9574 20.602C15.4657 20.9353 15.0718 21.1008 14.7705 21.1008C14.4691 21.1008 14.0755 20.9353 13.5841 20.6021C13.104 20.2765 12.5958 19.8375 12.0686 19.3777C12.0462 19.3581 12.0238 19.3386 12.0013 19.319C11.5046 18.8856 10.991 18.4375 10.5021 18.0951C10.0052 17.7472 9.45447 17.4492 8.91462 17.4492C8.39456 17.4492 7.77694 17.7207 7.1975 18.0517C6.5984 18.3939 5.96465 18.8451 5.39113 19.2888C4.81597 19.7337 4.29292 20.1777 3.91416 20.51C3.7715 20.6351 3.64904 20.7446 3.55165 20.8327C3.44544 20.7142 3.32169 20.5556 3.20956 20.3862C3.07656 20.1852 2.97824 19.9966 2.93594 19.8597C2.93159 19.8457 2.92823 19.8334 2.92564 19.8228C2.95775 19.7947 3.00381 19.7545 3.06236 19.704C3.18587 19.5974 3.36484 19.4448 3.5856 19.2614C4.02753 18.8943 4.635 18.4058 5.29908 17.918C5.96475 17.4291 6.67914 16.9471 7.33604 16.5889C8.01204 16.2203 8.56005 16.0213 8.91434 16.0208L8.91439 16.0208C9.21833 16.0204 9.60545 16.1803 10.0853 16.5003C10.5558 16.8142 11.0519 17.2372 11.5727 17.6822L11.5876 17.695C12.0939 18.1277 12.624 18.5807 13.1386 18.9248C13.6487 19.2659 14.21 19.5469 14.7717 19.5483ZM14.7717 19.5483L14.773 19.1317M14.7717 19.5483C14.7718 19.5483 14.7719 19.5483 14.772 19.5483L14.773 19.1317M14.773 19.1317C13.9077 19.1296 12.8774 18.2491 11.8469 17.3684C10.814 16.4858 9.78101 15.6029 8.91379 15.6042L14.773 19.1317ZM3.72527 13.7636C3.72675 13.7645 3.72752 13.765 3.72753 13.7651C3.72755 13.7651 3.7268 13.7647 3.72527 13.7636ZM3.72202 20.9983C3.72201 20.9983 3.72127 20.9978 3.71976 20.9968C3.72127 20.9977 3.72203 20.9982 3.72202 20.9983Z" fill="#191919" stroke="#232323" stroke-width="0.833333"/>
</svg>
