<svg width="30" height="30" viewBox="0 0 30 30" fill="none" xmlns="http://www.w3.org/2000/svg">
<path d="M22.8898 5.42624H22.9036L22.9174 5.42532C23.581 5.38135 24.2449 5.50633 24.8472 5.7886C25.4482 6.07029 25.9681 6.49945 26.3586 7.03611C27.1496 8.17402 27.189 9.45529 26.957 10.6401C26.7818 11.5344 26.4676 12.3177 26.2215 12.9312C26.1466 13.118 26.078 13.289 26.0216 13.4427C26.001 13.446 25.9704 13.4489 25.9264 13.4493C25.7615 13.4504 25.5283 13.4047 25.2866 13.3168C25.045 13.229 24.8363 13.1141 24.7097 13.0069C24.6757 12.9781 24.6533 12.9546 24.639 12.9375C24.7048 12.7543 24.7716 12.5726 24.8376 12.3928C25.1114 11.6469 25.3731 10.934 25.5086 10.2873C25.6844 9.44791 25.6703 8.62679 25.1584 7.8915L25.154 7.88514L25.1494 7.87895C24.8841 7.52663 24.5293 7.2518 24.1218 7.08307C23.7235 6.91811 23.289 6.86043 22.8617 6.91553C21.2571 6.92983 19.2332 8.13988 17.6135 12.826L17.6134 12.8259L17.61 12.8366C16.3753 16.7476 15.7563 20.8267 15.7752 24.9276C15.7545 24.9393 15.7233 24.9543 15.6788 24.9702C15.5143 25.0291 15.267 25.066 14.9981 25.066C14.7293 25.066 14.482 25.0291 14.3175 24.9702C14.273 24.9543 14.2418 24.9393 14.2211 24.9276C14.2398 20.8267 13.6209 16.7476 12.3863 12.8366L12.3865 12.8366L12.3828 12.826C10.764 8.13983 8.73916 6.92984 7.13457 6.91553C6.70776 6.86047 6.27379 6.91798 5.8758 7.08259C5.46869 7.25097 5.11408 7.52528 4.84881 7.87702L4.84405 7.88334L4.83953 7.88984C4.32723 8.6257 4.31535 9.44736 4.49291 10.2865C4.62854 10.9274 4.88847 11.6342 5.16025 12.3731C5.22846 12.5586 5.29742 12.7461 5.36534 12.9351C5.35106 12.9523 5.32852 12.9759 5.29424 13.0049C5.16738 13.1122 4.95843 13.227 4.71682 13.3148C4.47509 13.4026 4.24194 13.4484 4.07724 13.4472C4.03474 13.4469 4.00376 13.4435 3.9825 13.4398C3.92585 13.2865 3.85705 13.1159 3.78193 12.9295C3.53458 12.316 3.21866 11.5324 3.04203 10.6378C2.80811 9.45306 2.84606 8.17212 3.63681 7.03451C4.02753 6.49823 4.54753 6.06944 5.14847 5.78803C5.75068 5.50603 6.41453 5.38125 7.07803 5.42532L7.09183 5.42624H7.10565C8.98605 5.42624 10.5264 6.48202 11.7765 8.26551C13.0303 10.0541 13.9562 12.5299 14.5917 15.2389L15.403 15.2389C16.0388 12.5299 16.9649 10.0542 18.2188 8.26552C19.4691 6.48202 21.0094 5.42624 22.8898 5.42624ZM26.0577 13.4324C26.0582 13.4327 26.0554 13.4345 26.0478 13.4369C26.0535 13.4332 26.0572 13.4321 26.0577 13.4324Z" fill="#191919" stroke="#232323" stroke-width="0.833333"/>
</svg>
