<svg width="30" height="30" viewBox="0 0 30 30" fill="none" xmlns="http://www.w3.org/2000/svg">
<path d="M22.8166 20.5129L22.8165 20.513L22.8093 20.518L22.7851 20.5346C22.7647 20.5483 22.736 20.5673 22.7004 20.5898L22.6815 20.6017L22.6615 20.6115C22.2287 20.824 21.7533 20.9352 21.2712 20.9367C20.6169 20.9477 19.974 20.7641 19.4243 20.4091C18.8736 20.0535 18.4412 19.5419 18.1822 18.9397C17.9233 18.3375 17.8494 17.6718 17.9702 17.0275C18.0909 16.3831 18.4007 15.7893 18.8601 15.3217C19.3195 14.854 19.9077 14.5337 20.5498 14.4016C21.1919 14.2694 21.8587 14.3314 22.4655 14.5796C23.0722 14.8278 23.5913 15.251 23.9567 15.7953C24.322 16.3395 24.517 16.98 24.517 17.6354L22.8166 20.5129ZM22.8166 20.5129C22.817 20.5127 22.8173 20.5124 22.8176 20.5122C22.8588 20.4837 22.9034 20.4604 22.9504 20.4428L22.995 20.4261L23.0347 20.3998C23.491 20.0974 23.8652 19.6866 24.1238 19.2042C24.3825 18.7218 24.5176 18.1829 24.517 17.6356C24.517 17.6357 24.517 17.6358 24.517 17.6359L22.8166 20.5129ZM4.98453 11.7547C4.98424 12.4102 5.17911 13.051 5.54431 13.5954C5.90966 14.1401 6.42894 14.5636 7.03592 14.8119C7.6429 15.0603 8.3101 15.1222 8.95243 14.9899C9.59476 14.8575 10.1831 14.5369 10.6425 14.0689C11.1019 13.6008 11.4115 13.0066 11.5318 12.3619C11.6521 11.7172 11.5777 11.0512 11.3181 10.449C11.0585 9.84676 10.6253 9.33549 10.074 8.98037C9.52263 8.62526 8.878 8.44239 8.2223 8.45508L7.8137 8.46299V8.48188C7.47188 8.52592 7.13855 8.62534 6.82705 8.77708L6.79833 8.79108L6.77207 8.80929L6.70888 8.85339L6.69144 8.86568L6.68672 8.86902L6.68542 8.86994L6.68505 8.87021L6.68493 8.87029L6.68489 8.87032L6.68487 8.87033L6.68487 8.87034L6.9262 9.21L6.68486 8.87034L6.68314 8.87157C6.63962 8.90283 6.59209 8.92808 6.54182 8.94664L6.49542 8.96379L6.45432 8.99132C6.00052 9.29527 5.62889 9.70667 5.37246 10.1889C5.11617 10.6709 4.98291 11.2088 4.98453 11.7547ZM4.98453 11.7547C4.98453 11.755 4.98453 11.7552 4.98453 11.7555L5.4012 11.7542L4.98453 11.7539C4.98453 11.7542 4.98453 11.7544 4.98453 11.7547ZM25.7446 17.6273L25.7445 17.6273L25.7445 17.6362C25.7469 18.473 25.5203 19.2946 25.0892 20.0119C24.6582 20.7292 24.0392 21.315 23.2991 21.7057L23.2863 21.7125L23.2739 21.7202C22.3935 22.2668 19.2293 23.9674 13.8662 23.9725C13.8574 23.9711 13.8448 23.9692 13.8309 23.9677C13.8086 23.9654 13.7775 23.9635 13.7409 23.966L13.7409 23.966C13.7231 23.9672 13.7079 23.969 13.6975 23.9704L13.6841 23.9722L13.6822 23.9725C7.82996 23.9691 4.59205 21.9459 4.08326 21.6013C4.08588 21.5841 4.09014 21.5634 4.09665 21.539C4.13444 21.3976 4.22807 21.2065 4.3601 21.0173C4.49232 20.8278 4.63804 20.6759 4.75489 20.5944C4.77271 20.582 4.78782 20.5727 4.80024 20.5656C5.34405 20.9198 8.36283 22.6945 13.6723 22.7C13.6814 22.7015 13.694 22.7033 13.7081 22.7048C13.7309 22.7072 13.7615 22.709 13.7973 22.7066C13.8152 22.7054 13.8306 22.7036 13.8416 22.7022L13.8555 22.7003L13.8567 22.7001C15.4591 22.7069 17.0569 22.53 18.6191 22.1729L19.5384 21.9627L18.764 21.4245C18.153 20.9999 17.6541 20.4333 17.3102 19.7735C16.9663 19.1136 16.7876 18.3802 16.7895 17.6361H16.7896L16.7895 17.6273C16.7785 17.0324 16.8862 16.4412 17.1063 15.8883C17.3264 15.3355 17.6544 14.832 18.0713 14.4074C18.4882 13.9827 18.9855 13.6454 19.5342 13.4152C20.0829 13.1849 20.672 13.0663 21.267 13.0663C21.8621 13.0663 22.4512 13.1849 22.9999 13.4152C23.5486 13.6454 24.0459 13.9827 24.4628 14.4074C24.8796 14.832 25.2077 15.3355 25.4278 15.8883C25.6479 16.4412 25.7556 17.0324 25.7446 17.6273ZM4.71992 20.5114C4.72157 20.5126 4.72345 20.5139 4.72556 20.5154C4.72367 20.5142 4.72178 20.5128 4.71989 20.5115L4.71992 20.5114ZM12.7079 11.753H12.7078L12.7079 11.7579C12.7187 12.9582 12.2528 14.1138 11.4125 14.971C10.5732 15.8271 9.42893 16.3157 8.23024 16.33C7.03117 16.3163 5.88631 15.828 5.04656 14.9718C4.20576 14.1145 3.73956 12.9586 3.75037 11.7579L3.75036 11.7533C3.74866 10.9167 3.97598 10.0956 4.40768 9.37893C4.83939 8.66229 5.45901 8.07749 6.19939 7.6879L6.21262 7.68094L6.22532 7.67305C7.10808 7.12436 10.2769 5.42252 15.6474 5.42083L15.6564 5.42161C15.664 5.42226 15.6779 5.42341 15.6938 5.42403C15.7101 5.42467 15.7321 5.42493 15.7575 5.42311C15.7753 5.42184 15.7904 5.41998 15.8005 5.41864L15.8134 5.41683L15.8145 5.41667C21.8629 5.42024 25.1187 7.58063 25.456 7.81666C25.4594 7.83344 25.4631 7.86569 25.4604 7.92071C25.4538 8.05515 25.4098 8.23721 25.3348 8.43117C25.2607 8.6227 25.1672 8.7982 25.0825 8.91806C25.0631 8.94558 25.0459 8.96753 25.0315 8.9846C24.9401 8.96956 24.853 8.93332 24.7774 8.87824L24.7775 8.87809L24.7673 8.87112L24.7663 8.87043L24.763 8.86816L24.7523 8.86092C24.7437 8.85504 24.732 8.84723 24.7174 8.83765C24.6882 8.81848 24.6474 8.7923 24.5951 8.76013C24.4905 8.69579 24.3399 8.60757 24.1438 8.5036C23.7516 8.29566 23.1772 8.0247 22.4244 7.75584C20.9224 7.21945 18.7123 6.69222 15.8247 6.68918C15.8157 6.68772 15.8032 6.68586 15.7893 6.6844C15.7669 6.68206 15.7358 6.68013 15.6992 6.68265L15.7279 7.09833L15.6992 6.68265C15.6814 6.68388 15.6663 6.6857 15.6558 6.68706L15.6424 6.68889L15.6411 6.68909C14.0372 6.68123 12.4377 6.85609 10.8734 7.21029L9.94935 7.4195L10.728 7.95914C11.3408 8.38375 11.8411 8.95092 12.186 9.61182C12.5309 10.2727 12.71 11.0075 12.7079 11.753ZM15.6435 5.4205L15.6435 5.4205L15.6435 5.4205ZM25.4525 7.80365C25.4518 7.80232 25.4516 7.80158 25.4516 7.80154C25.4517 7.8015 25.452 7.80216 25.4525 7.80365ZM24.9833 9.03302C24.9834 9.03278 24.9857 9.03084 24.9901 9.02793C24.9855 9.03181 24.9833 9.03327 24.9833 9.03302Z" fill="#191919" stroke="#232323" stroke-width="0.833333"/>
</svg>
