<svg width="30" height="30" viewBox="0 0 30 30" fill="none" xmlns="http://www.w3.org/2000/svg">
<path d="M22.4591 13.0133L22.4574 13.0133C21.7433 13.0131 21.0373 13.1659 20.3872 13.4614C19.737 13.7569 19.1577 14.1882 18.6882 14.7264L18.0117 15.5019L17.9581 14.4742C17.9228 13.7963 17.9044 13.1088 17.8885 12.4505L22.4591 13.0133ZM22.4591 13.0133C23.3252 13.0101 24.1771 13.2327 24.9308 13.6593C25.6846 14.0858 26.3141 14.7015 26.7572 15.4456C27.2003 16.1897 27.4418 17.0365 27.4577 17.9024C27.4737 18.7683 27.2636 19.6234 26.8482 20.3833C26.4327 21.1432 25.8264 21.7817 25.0888 22.2357C24.3513 22.6897 23.5082 22.9436 22.6426 22.9722C21.777 23.0009 20.9189 22.8034 20.153 22.3992C19.3871 21.9949 18.7398 21.398 18.275 20.6672L17.939 20.1389L17.5814 20.6529C16.6357 22.0119 15.2918 23.044 13.7349 23.607C11.894 24.1195 9.99591 24.3975 8.08566 24.4345C8.08149 24.4201 8.07703 24.4026 8.07252 24.3814C8.04077 24.2325 8.03845 24.0107 8.07355 23.7717C8.10864 23.5328 8.17472 23.3202 8.24832 23.1854C8.26724 23.1507 8.28344 23.1272 8.29542 23.1119C9.97979 23.0625 11.6514 22.8028 13.2714 22.3389L13.3024 22.33L13.3317 22.3165C15.0517 21.5207 16.3906 20.0817 17.0606 18.309L17.1044 18.1933L17.0779 18.0725C16.677 16.2436 16.4909 14.3742 16.5233 12.5022L16.5235 12.4934L16.5233 12.4846C16.4927 11.2613 16.2533 9.89046 15.8845 8.81496C15.7008 8.27917 15.4773 7.79365 15.2156 7.4334C14.9662 7.08992 14.6102 6.76417 14.1459 6.76417C13.4736 6.76417 12.9413 7.2127 12.5336 7.78083C12.119 8.3587 11.7675 9.14816 11.4679 10.0264C10.8757 11.7626 10.4523 13.9502 10.1742 15.8257C10.1575 15.8333 10.1347 15.8423 10.1045 15.8517C9.96757 15.8944 9.76409 15.9195 9.54029 15.9156C9.31726 15.9117 9.10901 15.8795 8.96386 15.8307C8.91775 15.8152 8.88533 15.8005 8.86398 15.7889C8.55482 13.988 8.02789 12.2313 7.29473 10.5573C6.92399 9.69701 6.32481 8.91933 5.70167 8.35409C5.38918 8.07064 5.06276 7.83338 4.74599 7.66486C4.46168 7.51361 4.15948 7.40401 3.86852 7.38659C3.86012 7.37039 3.84969 7.34733 3.8378 7.31529C3.78464 7.17201 3.75012 6.9525 3.75016 6.71102C3.75021 6.46952 3.78483 6.25013 3.83804 6.10703C3.84914 6.07715 3.85897 6.05511 3.86706 6.03917C5.66205 6.07757 7.43935 7.4412 8.32749 9.69131C8.39287 9.85758 8.4658 10.0336 8.54264 10.219C8.71421 10.6331 8.90525 11.0941 9.07517 11.5988L9.47514 12.7867M22.4591 13.0133L9.47514 12.7867M9.47514 12.7867L9.86595 11.5957M9.47514 12.7867L9.86595 11.5957M9.86595 11.5957C9.92921 11.403 9.99191 11.2096 10.0545 11.0164C10.4873 9.68162 10.9168 8.35661 11.5071 7.31231C12.1765 6.12785 12.9882 5.41667 14.1467 5.41667C15.5093 5.41667 16.4093 6.24419 17.0025 7.58118M9.86595 11.5957L17.0025 7.58118M17.0025 7.58118C17.6016 8.9313 17.8453 10.727 17.8885 12.4504L17.0025 7.58118ZM8.10318 24.4823C8.10801 24.4877 8.10993 24.4916 8.10969 24.4922C8.10945 24.4928 8.10704 24.49 8.10318 24.4823ZM3.89119 7.42052C3.89104 7.42112 3.88829 7.41882 3.8834 7.41184C3.8889 7.41644 3.89134 7.41993 3.89119 7.42052ZM3.89136 6.00211C3.89151 6.0027 3.88906 6.0062 3.88355 6.0108C3.88845 6.00381 3.89121 6.00151 3.89136 6.00211ZM22.4542 21.5758L22.4564 21.5758C23.4161 21.5786 24.3377 21.2006 25.0191 20.5247C25.7005 19.8488 26.0859 18.9302 26.0909 17.9705V17.9683C26.0909 17.2561 25.88 16.5598 25.4849 15.9672C25.0898 15.3746 24.5281 14.9122 23.8706 14.6383C23.2131 14.3644 22.4893 14.2913 21.7903 14.4281C21.0913 14.565 20.4485 14.9057 19.9428 15.4073C19.4371 15.9089 19.0913 16.5489 18.9488 17.2468C18.8063 17.9446 18.8736 18.6691 19.1422 19.3287C19.4108 19.9884 19.8686 20.5538 20.458 20.9537C21.0474 21.3536 21.742 21.5701 22.4542 21.5758Z" fill="#191919" stroke="#232323" stroke-width="0.833333"/>
</svg>
