<svg width="30" height="30" viewBox="0 0 30 30" fill="none" xmlns="http://www.w3.org/2000/svg">
<path d="M19.7479 16.7664C20.1176 21.6229 22.0742 24.4545 22.4343 24.9339C22.4252 24.9514 22.4127 24.9726 22.3958 24.9974C22.3001 25.1379 22.1208 25.3139 21.8973 25.4848C21.6772 25.653 21.4441 25.7936 21.2639 25.8738C21.2371 25.8857 21.2132 25.8955 21.1921 25.9035C21.183 25.8913 21.1734 25.8783 21.1632 25.8646C21.0815 25.7537 20.969 25.5939 20.8351 25.3861C20.5672 24.9704 20.2143 24.3636 19.8516 23.5738C19.1263 21.9945 18.3623 19.6837 18.1607 16.7041L18.1344 16.3156H17.745H13.1667H12.7665L12.7503 16.7154C12.6153 20.0487 11.4537 23.2572 9.42693 25.903C9.40653 25.8952 9.38348 25.8857 9.35775 25.8742C9.17791 25.7943 8.94491 25.6541 8.72477 25.4863C8.50123 25.3159 8.3215 25.1403 8.22542 24.9999C8.20856 24.9753 8.19599 24.9542 8.18685 24.9368C9.97397 22.5683 11.0119 19.7188 11.1661 16.7547L11.1889 16.3164H10.75H8.0582C8.04713 16.2986 8.03188 16.2691 8.01391 16.2223C7.95467 16.0683 7.91667 15.834 7.91667 15.5773C7.91667 15.3205 7.95467 15.0862 8.01391 14.9322C8.03188 14.8854 8.04713 14.8559 8.0582 14.8381H10.8H11.231L11.2164 14.4074C11.1183 11.5015 10.3606 9.30493 9.61798 7.82601C9.24692 7.08704 8.87992 6.52781 8.60146 6.14887C8.46221 5.95937 8.34504 5.81487 8.26045 5.71542C8.22658 5.67558 8.19793 5.64298 8.1752 5.61762C8.18289 5.59398 8.19699 5.55962 8.22213 5.51429C8.30767 5.36007 8.47064 5.16866 8.67476 4.992C8.87893 4.81529 9.09138 4.6818 9.2556 4.61973C9.30617 4.60062 9.34296 4.59181 9.36707 4.58798C9.75711 5.0155 12.6145 8.28376 12.796 14.4345L12.8079 14.8389H13.2125H17.705H18.1093L18.1215 14.4348C18.3065 8.29595 20.8911 5.02598 21.2608 4.58633C21.285 4.59034 21.3213 4.59923 21.3707 4.61791C21.5354 4.6802 21.7482 4.81408 21.9526 4.99114C22.157 5.16819 22.3198 5.35978 22.405 5.51372C22.4309 5.56059 22.4449 5.59553 22.4522 5.61884C22.4514 5.61986 22.4506 5.62088 22.4497 5.62193C22.4266 5.65063 22.395 5.69054 22.3563 5.74165C22.2789 5.84385 22.1729 5.9906 22.0475 6.18183C21.7968 6.56426 21.4686 7.12468 21.1371 7.86253C20.4737 9.33906 19.7981 11.5235 19.7011 14.4091L19.6866 14.8398H20.1175H22.3193C22.3304 14.8576 22.3456 14.8871 22.3636 14.9338C22.4228 15.0879 22.4608 15.3222 22.4608 15.5789C22.4608 15.8357 22.4228 16.07 22.3636 16.224C22.3456 16.2708 22.3304 16.3002 22.3193 16.3181H20.1633H19.7137L19.7479 16.7664ZM21.0741 25.9361C21.0744 25.9358 21.079 25.9351 21.087 25.935C21.0778 25.9364 21.0738 25.9364 21.0741 25.9361ZM9.53368 25.9351C9.54172 25.9352 9.54637 25.9359 9.54668 25.9362C9.54699 25.9365 9.54298 25.9365 9.53368 25.9351ZM8.07763 16.3407C8.0775 16.3412 8.07499 16.3395 8.07048 16.334C8.0755 16.3375 8.07776 16.3402 8.07763 16.3407ZM8.07763 14.8138C8.07776 14.8143 8.0755 14.817 8.07048 14.8205C8.07499 14.815 8.0775 14.8133 8.07763 14.8138ZM22.2999 14.8155C22.3 14.815 22.3025 14.8167 22.307 14.8222C22.302 14.8187 22.2997 14.816 22.2999 14.8155ZM22.2999 16.3424C22.2997 16.3419 22.302 16.3391 22.307 16.3357C22.3025 16.3411 22.3 16.3429 22.2999 16.3424Z" fill="#191919" stroke="#232323" stroke-width="0.833333"/>
</svg>
