<svg width="30" height="30" viewBox="0 0 30 30" fill="none" xmlns="http://www.w3.org/2000/svg">
<path d="M20.2913 6.00065L20.2927 6.00282C21.063 7.2774 21.3731 9.05197 21.191 11.1368C21.0095 13.2165 20.3404 15.5717 19.1933 17.9736L19.5692 18.1531L19.1933 17.9736C18.2177 20.0161 17.866 21.7441 17.9548 23.0859C18.0434 24.4227 18.5785 25.4258 19.4259 25.8944C20.3391 26.3997 21.3018 26.1472 22.0785 25.658C22.8277 25.1861 23.4783 24.4545 23.9048 23.7625C23.9203 23.7639 23.9389 23.7664 23.9607 23.7706C24.1013 23.7979 24.2961 23.8779 24.4933 23.998C24.6902 24.1179 24.8519 24.2549 24.9422 24.3687C24.9578 24.3885 24.9699 24.4057 24.9789 24.4202C24.5706 25.0835 23.8954 25.847 23.0873 26.4417C22.246 27.0609 21.3072 27.4638 20.411 27.435L20.411 27.435L20.4053 27.4349C19.8565 27.4247 19.3181 27.2829 18.8355 27.0215C16.842 25.9274 15.5884 22.6069 18.0686 17.4127C19.0809 15.2932 19.7104 13.1906 19.9217 11.3361C20.1316 9.49316 19.9338 7.84347 19.2283 6.67552C18.9185 6.1553 18.4735 5.72879 17.9406 5.4414C17.417 5.15901 16.8277 5.02133 16.2335 5.04224C15.5628 4.97212 14.8854 5.08417 14.2727 5.36686C13.65 5.65413 13.118 6.10664 12.7346 6.67517L12.7346 6.67514L12.7307 6.68116C11.3255 8.84423 11.7141 11.795 13.4635 15.6731C13.4913 15.7388 13.5079 15.8087 13.5127 15.8799L13.5161 15.9322L13.5324 15.9819C13.683 16.442 13.7604 16.9228 13.7618 17.4069C13.7618 18.3169 13.4912 19.2064 12.9844 19.9623C12.4776 20.7183 11.7574 21.3066 10.9155 21.6522C10.0735 21.9979 9.14772 22.0854 8.25589 21.9036C7.36406 21.7218 6.54644 21.2789 5.90696 20.6312C5.26748 19.9835 4.83503 19.1603 4.6646 18.2663C4.49416 17.3722 4.59343 16.4476 4.94979 15.6101C5.30615 14.7726 5.9035 14.06 6.6659 13.5628C7.4283 13.0657 8.32131 12.8064 9.23141 12.8181L9.23141 12.8181L9.23651 12.8181C9.67547 12.8184 10.112 12.8836 10.5319 13.0117L11.226 13.2234L11.0589 12.5172C10.6914 10.9638 10.5685 9.76707 10.6741 8.74405C10.7787 7.73054 11.1099 6.86503 11.687 5.97635C12.1767 5.23466 12.8568 4.63822 13.6561 4.24946C14.4558 3.86049 15.3454 3.69376 16.2317 3.76674L16.2527 3.76846L16.2738 3.76807C17.0808 3.75285 17.8776 3.95135 18.5831 4.34345C19.2887 4.73554 19.878 5.30727 20.2913 6.00065ZM7.39074 20.1762C7.94036 20.5345 8.58407 20.7214 9.24011 20.7131C10.112 20.7061 10.9456 20.3537 11.5582 19.7332C12.1708 19.1128 12.5124 18.2748 12.5084 17.403C12.5083 16.7468 12.3133 16.1055 11.9479 15.5605C11.5824 15.0151 11.063 14.5908 10.4557 14.3414C9.84834 14.0921 9.18059 14.029 8.53731 14.1601C7.89403 14.2912 7.30427 14.6107 6.84301 15.0778C6.38176 15.545 6.06985 16.1388 5.94694 16.7837C5.82403 17.4286 5.89568 18.0955 6.15277 18.6996C6.40986 19.3037 6.84078 19.8176 7.39074 20.1762Z" fill="#191919" stroke="#232323" stroke-width="0.833333"/>
</svg>
