<svg width="30" height="30" viewBox="0 0 30 30" fill="none" xmlns="http://www.w3.org/2000/svg">
<path d="M24.921 5.32137C24.8121 5.21292 24.6817 5.12844 24.5381 5.07333C24.3946 5.01822 24.2412 4.99371 24.0877 5.00137L24.921 5.32137ZM24.921 5.32137C25.0291 5.42891 25.1136 5.55784 25.169 5.6999M24.921 5.32137L25.169 5.6999M25.169 5.6999C25.2243 5.84197 25.2495 5.99404 25.2427 6.14637L25.169 5.6999ZM24.6271 5.61667L24.6271 5.61677C24.6941 5.68339 24.7464 5.76326 24.7807 5.85126C24.8151 5.93927 24.8306 6.03348 24.8264 6.12784L24.8264 6.12929L24.4264 15.8796C24.4125 15.8857 24.3941 15.8928 24.3704 15.9007C24.2366 15.9448 24.0313 15.969 23.8059 15.9585C23.5802 15.948 23.3792 15.9049 23.2517 15.8484C23.2269 15.8374 23.2085 15.8279 23.1952 15.8201L23.3842 8.90192L23.4127 7.85706L22.6732 8.59574L13.8532 17.4057L13.5575 17.7011L13.8538 17.9959L16.7398 20.8672C16.7357 20.8872 16.7274 20.9169 16.7111 20.9589C16.6545 21.1053 16.5347 21.2945 16.3761 21.4765C16.2174 21.6587 16.0474 21.8022 15.9126 21.877C15.8873 21.891 15.8663 21.9009 15.8496 21.9078L12.8798 18.9551L12.586 18.6629L12.2922 18.9551L7.26117 23.9583C7.23858 23.9507 7.20939 23.9391 7.17347 23.9217C7.02375 23.8491 6.83592 23.7139 6.66087 23.5466C6.48435 23.3779 6.35054 23.2049 6.28543 23.0727C6.27524 23.0521 6.26778 23.035 6.26235 23.0213L11.3181 17.9935L11.6153 17.698L11.3181 17.4025L8.4152 14.5168C8.42112 14.4979 8.43005 14.4745 8.44294 14.4467C8.50809 14.3065 8.64125 14.1251 8.8147 13.9527C8.98808 13.7802 9.17068 13.6476 9.31239 13.5825C9.34399 13.568 9.36892 13.559 9.38748 13.5534L12.2923 16.441L12.5839 16.7309L12.8776 16.4432L21.7859 7.71652L22.523 6.9945L21.4912 7.00221L14.7718 7.05245C14.7658 7.03943 14.759 7.023 14.7519 7.00258C14.7024 6.86157 14.6724 6.64015 14.678 6.39242C14.6835 6.1459 14.7234 5.91702 14.7822 5.76306C14.7996 5.71742 14.8158 5.68612 14.8282 5.66592L24.0988 5.41789L24.0988 5.418L24.1084 5.41752C24.204 5.41275 24.2995 5.42801 24.3888 5.4623L24.5378 5.07436L24.3888 5.4623C24.4781 5.4966 24.5592 5.54918 24.6271 5.61667ZM24.4568 15.8641C24.4616 15.859 24.4652 15.8568 24.4658 15.857C24.4663 15.8572 24.4639 15.8597 24.4568 15.8641ZM23.1634 15.7967C23.1639 15.7966 23.1671 15.7991 23.1711 15.8044C23.1648 15.7995 23.1628 15.7968 23.1634 15.7967ZM16.7431 20.8337C16.7435 20.8335 16.7439 20.8361 16.7436 20.8423C16.7426 20.837 16.7428 20.8339 16.7431 20.8337ZM6.249 22.9729C6.24961 22.9732 6.25072 22.9778 6.25052 22.9856C6.24829 22.9764 6.2484 22.9725 6.249 22.9729ZM6.20099 23.0823C6.20087 23.0824 6.20074 23.0826 6.20061 23.0827L6.20065 23.0826L6.20099 23.0823Z" fill="#191919" stroke="#232323" stroke-width="0.833333"/>
</svg>
