<svg width="30" height="30" viewBox="0 0 30 30" fill="none" xmlns="http://www.w3.org/2000/svg">
<path d="M19.3748 11.6218C19.3787 10.9676 19.2219 10.3225 18.9182 9.74311C18.6141 9.16295 18.172 8.66646 17.6309 8.29737C17.0898 7.92828 16.4662 7.69791 15.815 7.62656C15.1639 7.5552 14.5052 7.64504 13.897 7.88817C13.2887 8.1313 12.7496 8.52025 12.3271 9.02079C11.9046 9.52132 11.6116 10.1181 11.474 10.7585C11.3364 11.3989 11.3583 12.0633 11.5379 12.6932C11.7176 13.3231 12.0493 13.8992 12.504 14.3708L12.5039 14.3709L12.5121 14.379C12.579 14.4446 12.6306 14.5242 12.6631 14.6121L13.0539 14.4675L12.6631 14.6121C12.6957 14.7 12.7084 14.794 12.7003 14.8874C12.6923 14.9808 12.6637 15.0712 12.6167 15.1522C12.5696 15.2333 12.5052 15.3029 12.428 15.3562L12.3866 15.3847L12.3532 15.4224C12.2922 15.4911 12.2173 15.5461 12.1335 15.5839C12.0499 15.6216 11.9593 15.6412 11.8676 15.6416H3.86747C3.85829 15.6239 3.84808 15.6011 3.8376 15.5725C3.78451 15.4274 3.75016 15.2056 3.75016 14.9621C3.75016 14.7185 3.78451 14.4968 3.83758 14.3519C3.848 14.3234 3.85813 14.3007 3.86726 14.2832H10.1314H10.7562L10.5161 13.7064C10.2412 13.0462 10.0994 12.3381 10.0989 11.6229H10.0989L10.0989 11.6182C10.0904 10.9163 10.2213 10.2197 10.4841 9.5688C10.7468 8.91789 11.1361 8.3256 11.6295 7.82627C12.1228 7.32693 12.7104 6.93049 13.3581 6.65991C14.0058 6.38934 14.7007 6.25001 15.4027 6.25001C16.1046 6.25001 16.7996 6.38934 17.4473 6.65991C18.0949 6.93049 18.6825 7.32693 19.1758 7.82627C19.6692 8.3256 20.0585 8.91789 20.3212 9.5688C20.584 10.2197 20.7149 10.9163 20.7064 11.6182L20.7064 11.6182L20.7064 11.6256C20.7105 12.339 20.56 13.0448 20.2653 13.6944L19.9982 14.2832H20.6447H26.7109C26.7199 14.3007 26.7298 14.3233 26.7401 14.3514C26.7929 14.4968 26.827 14.719 26.827 14.9628C26.827 15.2067 26.7929 15.4288 26.7401 15.5742C26.7298 15.6023 26.7199 15.6249 26.7109 15.6424H18.6135C18.4968 15.6416 18.3824 15.6098 18.2821 15.5503C18.1814 15.4906 18.0984 15.4052 18.0417 15.3029L18.0336 15.2883L18.0244 15.2745C17.9352 15.14 17.896 14.9784 17.9139 14.8179C17.9314 14.6605 18.0026 14.5141 18.1154 14.4032C18.5119 14.0586 18.8296 13.6327 19.047 13.1544C19.2656 12.6732 19.3774 12.1503 19.3748 11.6218ZM19.3748 11.6218C19.3748 11.6209 19.3747 11.62 19.3747 11.6191L18.9581 11.6216L19.3747 11.6243C19.3747 11.6235 19.3747 11.6226 19.3748 11.6218ZM3.8383 20.1577C3.84838 20.1308 3.85734 20.1106 3.8648 20.0957H26.7161C26.7235 20.1106 26.7324 20.1306 26.7424 20.1572C26.794 20.2948 26.8279 20.5068 26.8279 20.7411C26.8279 20.9754 26.794 21.1878 26.7423 21.326C26.732 21.3534 26.7229 21.374 26.7153 21.3891H3.8648C3.85734 21.3741 3.84838 21.354 3.8383 21.3271C3.78661 21.1893 3.75266 20.9769 3.75266 20.7424C3.75266 20.5079 3.78661 20.2955 3.8383 20.1577ZM26.692 20.0582C26.6921 20.0576 26.6948 20.06 26.6997 20.067C26.6942 20.0623 26.6918 20.0588 26.692 20.0582ZM26.6913 21.4261C26.6911 21.4255 26.6935 21.4221 26.6989 21.4175C26.6941 21.4244 26.6914 21.4267 26.6913 21.4261ZM3.88891 21.4264C3.88876 21.427 3.88603 21.4247 3.88117 21.4176C3.88664 21.4223 3.88906 21.4258 3.88891 21.4264ZM3.88117 20.0671C3.88603 20.0601 3.88876 20.0578 3.88891 20.0584C3.88906 20.059 3.88664 20.0625 3.88117 20.0671Z" fill="#191919" stroke="#232323" stroke-width="0.833333"/>
</svg>
