<svg width="30" height="30" viewBox="0 0 30 30" fill="none" xmlns="http://www.w3.org/2000/svg">
<path d="M25.421 24.0172L26.3141 23.9448L25.6832 23.3085L24.4764 22.0914C24.4816 22.0768 24.4887 22.0596 24.4981 22.0398C24.5596 21.9105 24.6851 21.7422 24.8492 21.5817C25.0133 21.4213 25.1846 21.2995 25.3154 21.2409C25.3361 21.2316 25.3541 21.2247 25.3692 21.2197L28.2621 24.1559C28.2622 24.156 28.2624 24.1562 28.2625 24.1563C28.3759 24.2724 28.4396 24.4282 28.44 24.5905C28.4404 24.7527 28.3775 24.9086 28.2648 25.0252C28.2646 25.0255 28.2643 25.0257 28.2641 25.026L25.2663 28.0805C25.1348 27.9907 24.9662 27.8465 24.8041 27.6805C24.635 27.5073 24.4947 27.3327 24.4165 27.1984C24.4126 27.1917 24.409 27.1852 24.4055 27.179L25.5935 25.985L26.3633 25.2113L25.2738 25.2751C25.0808 25.2864 24.8708 25.2944 24.6465 25.2944H24.6365L24.6265 25.2949C23.2201 25.3623 21.8326 24.9502 20.6911 24.1263C20.2615 23.75 19.9213 23.2825 19.6952 22.7578C19.4668 22.2277 19.3609 21.6529 19.3853 21.0762L19.3857 21.0674V21.0586V9.16191C19.3857 8.51447 19.2572 7.72995 18.9088 7.09105C18.5514 6.4359 17.9408 5.90691 17.0157 5.90691C16.4853 5.90691 16.0002 6.1651 15.5863 6.54965C15.1711 6.93526 14.7974 7.47411 14.477 8.10924L14.4275 8.2074L14.4328 8.31721C14.4372 8.40631 14.4373 9.05022 14.4373 9.16191V21.1784C14.4232 21.1853 14.4057 21.1927 14.3848 21.2004C14.2501 21.2499 14.0421 21.2825 13.8123 21.2825C13.5825 21.2825 13.3746 21.2499 13.2399 21.2004C13.2189 21.1927 13.2015 21.1853 13.1873 21.1784V9.16107C13.1873 8.48311 12.9774 7.70586 12.6449 7.09143C12.4779 6.78278 12.2699 6.49632 12.0233 6.28212C11.7768 6.0679 11.4671 5.90608 11.1107 5.90608C10.5875 5.90608 10.0502 6.16351 9.58399 6.547C9.1105 6.93647 8.6725 7.48564 8.34455 8.14244L8.30066 8.23033V8.32858V21.1083C8.28311 21.1166 8.2612 21.1256 8.23452 21.1349C8.08435 21.1867 7.85658 21.2198 7.60774 21.2198C7.35891 21.2198 7.13114 21.1867 6.98096 21.1349C6.95429 21.1256 6.93238 21.1166 6.91483 21.1083V8.25108C6.91483 7.28199 6.48987 6.32646 6.00151 5.56568C5.53973 4.84631 4.98909 4.25141 4.58846 3.92792C4.59156 3.91192 4.5963 3.89264 4.60324 3.87006C4.64534 3.7331 4.74515 3.54841 4.88416 3.36615C5.02316 3.18388 5.17484 3.03883 5.29562 2.96207C5.31371 2.95057 5.32965 2.94155 5.34334 2.93459C6.4291 3.80846 7.32629 4.89402 7.98014 6.12562L8.29689 6.72224L8.68791 6.17144C9.01273 5.7139 9.43793 5.33674 9.93095 5.06883C10.4214 4.80231 10.966 4.65092 11.5236 4.62609C12.101 4.62763 12.4828 4.78246 12.7768 5.03247C13.0866 5.29586 13.3343 5.6943 13.5821 6.24732L13.8676 6.88434L14.2928 6.33069C14.6694 5.8403 15.1453 5.43495 15.6893 5.14115C16.2288 4.84983 16.8232 4.67469 17.4344 4.62695C18.4818 4.63217 19.2633 5.1713 19.8015 6.01118C20.35 6.86721 20.6315 8.02225 20.6315 9.16191V21.0459C20.604 21.4392 20.6659 21.8337 20.8127 22.1998C20.9616 22.571 21.1938 22.9031 21.4915 23.1703L21.4969 23.1752L21.5026 23.1799C22.0498 23.6374 22.785 23.8603 23.4783 23.9644C24.1792 24.0696 24.8859 24.0606 25.421 24.0172Z" fill="#191919" stroke="#232323" stroke-width="0.833333"/>
</svg>
