<svg xmlns="http://www.w3.org/2000/svg" xmlns:xlink="http://www.w3.org/1999/xlink">

  <symbol id="aries"  viewBox="0 0 30 30"  xmlns="http://www.w3.org/2000/svg">
    <path d="M26.6301 7.52284C26.2153 6.95146 25.6623 6.49459 25.0229 6.19492C24.3836 5.89524 23.6787 5.76255 22.9741 5.80924C19.0133 5.80924 16.6293 10.2892 15.3973 15.538C14.1661 10.2892 11.7821 5.80924 7.82133 5.80924C7.11692 5.76244 6.41214 5.89493 5.7728 6.19431C5.13347 6.49369 4.58043 6.95021 4.16533 7.52124C2.47173 9.95244 4.05733 12.946 4.47013 14.102C4.67733 14.6804 6.75493 13.9252 6.55013 13.3468C5.86773 11.4372 5.16933 9.95884 5.97413 8.80284C6.18578 8.52218 6.46872 8.30331 6.79355 8.16896C7.11838 8.03461 7.47326 7.98968 7.82133 8.03884C9.10773 8.03884 10.9661 8.97644 12.5093 13.4436C13.6894 17.182 14.2773 21.0819 14.2517 25.002C14.2517 25.6172 16.5445 25.6172 16.5445 25.002C16.5188 21.0819 17.1067 17.182 18.2869 13.4436C19.8309 8.97644 21.6885 8.03884 22.9749 8.03884C23.3234 7.98965 23.6787 8.03472 24.0038 8.16936C24.3289 8.304 24.6121 8.5233 24.8237 8.80444C25.6285 9.96044 24.9365 11.4388 24.2541 13.3484C24.0477 13.9268 26.1253 14.6828 26.3341 14.1036C26.7445 12.9476 28.3237 9.95404 26.6301 7.52284Z" />
  </symbol>

  <symbol id="taurus"  viewBox="0 0 30 30"  xmlns="http://www.w3.org/2000/svg">
    <path d="M25.8802 6.14447C21.1802 4.95567 19.673 7.20207 18.4618 9.00367C17.5458 10.3701 17.3698 11.9917 15.3058 11.9917C15.269 11.9917 15.2346 11.9989 15.1994 12.0021H15.1194C15.0841 11.9968 15.0486 11.9933 15.013 11.9917C12.949 11.9917 12.773 10.6413 11.8562 9.27167C10.6466 7.47327 9.1394 4.91487 4.4402 6.10447C3.8802 6.24687 4.4026 8.27247 4.9618 8.11887C9.5738 6.85487 10.2354 12.7437 11.6058 13.0533C10.6817 13.6739 9.93385 14.523 9.43496 15.5182C8.93607 16.5133 8.7031 17.6206 8.75869 18.7323C8.81428 19.8441 9.15655 20.9226 9.75222 21.863C10.3479 22.8034 11.1767 23.5737 12.1581 24.0991C13.1395 24.6244 14.2402 24.887 15.353 24.8612C16.4659 24.8354 17.5532 24.5221 18.5092 23.9518C19.4652 23.3815 20.2574 22.5736 20.8089 21.6066C21.3603 20.6396 21.6522 19.5464 21.6562 18.4333C21.6537 17.3615 21.3825 16.3074 20.8673 15.3675C20.3522 14.4277 19.6095 13.632 18.7074 13.0533C20.3074 12.7213 20.5954 6.88366 25.3522 8.15886C25.9162 8.30926 26.4402 6.28367 25.8802 6.14447ZM15.1602 22.7821C14.3021 22.7721 13.4662 22.5086 12.7576 22.0247C12.049 21.5407 11.4993 20.858 11.1778 20.0624C10.8563 19.2668 10.7773 18.3938 10.9508 17.5534C11.1243 16.713 11.5425 15.9427 12.1527 15.3395C12.763 14.7362 13.5381 14.3269 14.3804 14.1631C15.2227 13.9993 16.0947 14.0884 16.8866 14.419C17.6784 14.7496 18.3548 15.3071 18.8305 16.0213C19.3063 16.7354 19.5601 17.5744 19.5602 18.4325C19.5526 19.5924 19.085 20.702 18.26 21.5175C17.4351 22.333 16.3202 22.7878 15.1602 22.7821Z" />
  </symbol>

  <symbol id="twins"  viewBox="0 0 30 30"  xmlns="http://www.w3.org/2000/svg">
    <path d="M19.6573 21.0334V9.79577C19.6571 9.72778 19.6501 9.65998 19.6365 9.59337C21.1155 9.23167 22.4556 8.44327 23.4901 7.32616C23.8901 6.93576 22.4773 5.47657 22.0733 5.86617C22.0501 5.88857 19.7301 8.07336 15.1549 8.07336C15.1349 8.07336 15.1165 8.07817 15.0965 8.07896C15.0765 8.07977 15.0581 8.07336 15.0381 8.07336C10.5229 8.07336 8.22452 5.96297 8.11972 5.86457C7.71972 5.47817 6.30292 6.93737 6.70692 7.32777C7.91329 8.2872 9.29266 9.00608 10.7701 9.44536C10.7419 9.5369 10.7268 9.63199 10.7253 9.72777V21.1542C9.2643 21.5947 7.90035 22.309 6.70612 23.259C6.30612 23.6478 7.14772 25.0014 7.41572 25.0014C7.67684 25.0018 7.92821 24.9022 8.11812 24.723C8.21332 24.6326 10.5133 22.5142 15.0373 22.5142C15.0573 22.5142 15.0765 22.5094 15.0957 22.5078C15.1149 22.5062 15.1341 22.5142 15.1541 22.5142C19.6725 22.5142 21.9717 24.627 22.0733 24.723C22.2627 24.9045 22.515 25.0056 22.7773 25.0054C23.0437 25.0054 23.8901 23.6494 23.4861 23.2598C22.4501 22.1654 21.1209 21.3925 19.6573 21.0334ZM12.7661 9.91336C13.5168 10.0403 14.2768 10.1035 15.0381 10.1022C15.0581 10.1022 15.0773 10.0974 15.0965 10.0958C15.1157 10.0942 15.1349 10.1022 15.1549 10.1022C15.9598 10.1023 16.764 10.0534 17.5629 9.95577V20.6278C16.764 20.5301 15.9598 20.4812 15.1549 20.4814C15.1349 20.4814 15.1165 20.4862 15.0965 20.487C15.0765 20.4878 15.0581 20.4814 15.0381 20.4814C14.2768 20.48 13.5168 20.5432 12.7661 20.6702V9.91336Z" stroke-width="0.833333"/>
  </symbol>

  <symbol id="cancer"  viewBox="0 0 30 30"  xmlns="http://www.w3.org/2000/svg">
    <path d="M26.1148 17.9296C26.1263 17.3054 26.0133 16.685 25.7824 16.1049C25.5514 15.5248 25.2072 14.9965 24.7697 14.5509C24.3323 14.1053 23.8105 13.7514 23.2347 13.5098C22.6589 13.2682 22.0408 13.1437 21.4164 13.1437C20.792 13.1437 20.1738 13.2682 19.5981 13.5098C19.0223 13.7514 18.5005 14.1053 18.063 14.5509C17.6256 14.9965 17.2814 15.5248 17.0504 16.1049C16.8195 16.685 16.7065 17.3054 16.718 17.9296C16.716 18.7087 16.9031 19.4766 17.2631 20.1674C17.6232 20.8583 18.1455 21.4515 18.7852 21.896C17.3102 22.2332 15.8014 22.3997 14.2884 22.392C14.2644 22.392 14.2428 22.3976 14.2188 22.3993C14.1948 22.4009 14.1732 22.392 14.1492 22.392C8.66759 22.392 5.79879 20.392 5.76599 20.3672C5.32039 20.044 4.17239 21.6896 4.61719 22.0136C4.75159 22.112 7.97719 24.4136 14.1492 24.4136C14.1732 24.4136 14.1956 24.408 14.2188 24.4064C14.242 24.4048 14.2644 24.4136 14.2884 24.4136C19.5396 24.4136 22.6572 22.748 23.554 22.1912C24.3289 21.782 24.9772 21.1687 25.4286 20.4175C25.8799 19.6663 26.1172 18.806 26.1148 17.9296ZM21.4164 20.6992C20.8666 20.7091 20.3263 20.5551 19.8643 20.2567C19.4024 19.9584 19.0397 19.5293 18.8224 19.0242C18.6052 18.519 18.5433 17.9606 18.6446 17.4201C18.7458 16.8796 19.0057 16.3815 19.3911 15.9892C19.7764 15.5969 20.2698 15.3282 20.8085 15.2174C21.3471 15.1065 21.9065 15.1585 22.4154 15.3667C22.9244 15.5749 23.3599 15.9299 23.6663 16.3865C23.9728 16.8431 24.1365 17.3805 24.1364 17.9304C24.1369 18.3898 24.0235 18.8422 23.8064 19.247C23.5893 19.6519 23.2753 19.9966 22.8924 20.2504C22.8157 20.2791 22.7428 20.3173 22.6756 20.364C22.6756 20.364 22.6396 20.3896 22.5788 20.428C22.217 20.6057 21.8194 20.6984 21.4164 20.6992ZM8.90119 17.0768C10.1594 17.0631 11.3608 16.5508 12.2417 15.6522C13.1225 14.7536 13.6109 13.5423 13.5996 12.284C13.6018 11.5036 13.4143 10.7343 13.0532 10.0423C12.6921 9.35041 12.1683 8.75661 11.5268 8.31205C13.004 7.97758 14.5146 7.81304 16.0292 7.82165C16.0532 7.82165 16.0756 7.81605 16.0988 7.81445C16.122 7.81285 16.1444 7.82165 16.1676 7.82165C21.6364 7.82165 24.5052 9.81525 24.5508 9.84645C24.7169 9.96751 24.9172 10.0328 25.1228 10.0328C25.4316 10.0328 26.146 8.52485 25.7004 8.20005C25.566 8.10165 22.3404 5.80005 16.1676 5.80005C16.1436 5.80005 16.1212 5.80565 16.0988 5.80725C16.0764 5.80885 16.0524 5.80405 16.0292 5.80405C10.7804 5.80405 7.66359 7.46805 6.76519 8.02645C5.98981 8.43445 5.34089 9.0469 4.88878 9.79742C4.43667 10.5479 4.1986 11.4079 4.20039 12.284C4.18908 13.5427 4.67778 14.7544 5.55916 15.653C6.44054 16.5517 7.64254 17.0638 8.90119 17.0768ZM8.90119 9.51685C9.45122 9.5062 9.99197 9.6596 10.4545 9.95749C10.917 10.2554 11.2803 10.6843 11.4981 11.1895C11.7159 11.6946 11.7783 12.2532 11.6774 12.794C11.5764 13.3348 11.3167 13.8333 10.9314 14.226C10.546 14.6186 10.0525 14.8875 9.51366 14.9986C8.97484 15.1096 8.41516 15.0576 7.90599 14.8493C7.39683 14.6409 6.96123 14.2857 6.65476 13.8288C6.34829 13.372 6.18481 12.8342 6.18519 12.284C6.18372 11.8256 6.29556 11.374 6.51078 10.9692C6.726 10.5645 7.03792 10.2192 7.41879 9.96405C7.50073 9.93378 7.57823 9.89261 7.64919 9.84165C7.64919 9.84165 7.67959 9.82005 7.72919 9.78565C8.09421 9.60783 8.49516 9.51614 8.90119 9.51765V9.51685Z" />
  </symbol>


  <symbol id="lion"  viewBox="0 0 30 30"  xmlns="http://www.w3.org/2000/svg">
    <path d="M23.6496 23.5334C22.884 24.8206 21.2376 26.2806 19.8424 25.5086C18.5328 24.7846 17.9528 22.2662 19.7864 18.427C22.0224 13.7454 22.4192 9.19656 20.8232 6.55576C20.3903 5.82952 19.7731 5.23069 19.034 4.82001C18.295 4.40933 17.4605 4.20142 16.6152 4.21736C15.6929 4.14141 14.7671 4.31492 13.9348 4.71972C13.1026 5.12451 12.3945 5.74569 11.8848 6.51816C10.716 8.31736 10.5112 10.0822 11.2272 13.1086C10.7864 12.9741 10.3281 12.9056 9.8672 12.9054C8.91418 12.8931 7.97905 13.1646 7.1807 13.6852C6.38234 14.2058 5.75682 14.952 5.38365 15.829C5.01049 16.706 4.90653 17.6742 5.08501 18.6104C5.26348 19.5467 5.71633 20.4087 6.38596 21.0869C7.0556 21.7652 7.91179 22.2289 8.84568 22.4193C9.77957 22.6097 10.749 22.5181 11.6307 22.1561C12.5124 21.7941 13.2665 21.1782 13.7972 20.3865C14.328 19.5949 14.6113 18.6633 14.6112 17.7102C14.6099 17.2033 14.5289 16.6998 14.3712 16.2182C14.3636 16.1035 14.3365 15.991 14.2912 15.8854C12.6176 12.1766 12.3288 9.52216 13.5568 7.63176C13.884 7.14662 14.3379 6.76047 14.8693 6.51533C15.4006 6.27019 15.989 6.17543 16.5704 6.24136C17.0792 6.21842 17.5847 6.33399 18.033 6.57575C18.4813 6.81752 18.8556 7.1764 19.116 7.61416C20.3416 9.64136 19.8976 13.539 17.9848 17.5438C15.5664 22.6086 16.6968 26.0886 18.8904 27.2918C19.4103 27.5735 19.9903 27.7264 20.5816 27.7374C22.5504 27.8006 24.536 25.9774 25.3656 24.5782C25.6504 24.099 23.9352 23.0542 23.6496 23.5334ZM9.8664 20.4846C9.31553 20.4917 8.77498 20.3349 8.31348 20.034C7.85198 19.7331 7.49037 19.3018 7.27463 18.7949C7.0589 18.288 6.99877 17.7284 7.10191 17.1872C7.20505 16.646 7.46679 16.1477 7.85385 15.7557C8.24092 15.3637 8.73582 15.0956 9.27563 14.9856C9.81545 14.8755 10.3758 14.9285 10.8854 15.1378C11.395 15.347 11.8309 15.7031 12.1377 16.1607C12.4444 16.6183 12.6081 17.1568 12.608 17.7078C12.6116 18.4392 12.3251 19.1423 11.8111 19.6628C11.2972 20.1833 10.5979 20.4788 9.8664 20.4846Z"/>
  </symbol>

  <symbol id="virgo"  viewBox="0 0 30 30"  xmlns="http://www.w3.org/2000/svg">
    <path d="M25.1796 19.2963C27.05 15.5443 26.8124 12.1131 25.6444 9.77633C25.547 9.59155 25.4094 9.43095 25.2417 9.30635C25.0741 9.18175 24.8806 9.09631 24.6756 9.05633C24.3684 8.97497 24.0425 9.00326 23.754 9.13633C22.8075 9.70213 21.9804 10.4469 21.3188 11.3291C21.2436 11.4211 21.1708 11.5163 21.0996 11.6115V10.2515C21.0996 7.78673 20.2364 5.18833 17.7396 5.18833C17.0462 5.23585 16.3709 5.43026 15.7583 5.75866C15.1458 6.08705 14.6101 6.54194 14.1868 7.09313C13.6676 5.90833 13.0772 5.18833 11.7132 5.18833C11.0723 5.21081 10.445 5.37966 9.87936 5.68195C9.31375 5.98424 8.82481 6.41195 8.44998 6.93233C7.74626 5.58515 6.77014 4.39898 5.58358 3.44913C5.11718 3.09153 3.83478 4.79233 4.30038 5.14913C5.03158 5.70913 6.92838 7.54913 6.92838 9.30913V22.0211C6.92838 22.6115 9.04758 22.6115 9.04758 22.0211V9.47233C9.66598 8.22113 10.4932 7.31233 11.2876 7.31233C12.2044 7.31233 12.9524 9.00513 12.9524 10.2443V22.0875C12.9524 22.6771 15.0716 22.6771 15.0716 22.0875V10.2427C15.0716 10.1523 15.0716 9.57233 15.0676 9.48113C15.6844 8.22913 16.5156 7.31073 17.314 7.31073C18.2308 7.31073 18.9788 9.00353 18.9788 10.2427V21.9803C18.9691 22.3428 18.9927 22.7054 19.0492 23.0635C18.4432 23.4604 17.7885 23.7772 17.1012 24.0059C16.566 24.2459 17.1236 26.0515 17.53 26.0515C17.6764 26.0411 17.8207 26.0104 17.9588 25.9603C18.6781 25.8007 19.3538 25.4859 19.9388 25.0379C20.6698 26.1865 21.6857 27.1263 22.8876 27.7659C23.0694 27.9017 23.2903 27.9749 23.5172 27.9747C23.842 27.9747 24.8484 26.5531 24.3772 26.2019C23.506 25.5523 22.5076 25.3163 21.6452 23.8019C23.1254 22.5637 24.3295 21.0288 25.1796 19.2963ZM21.0996 15.2763C21.3662 14.3609 21.8647 13.5298 22.5468 12.8635C22.9788 12.4091 23.9516 11.4555 24.0956 11.6859C24.8908 12.9595 24.5756 15.7827 23.2452 18.4243C22.7091 19.5496 21.9836 20.5744 21.1004 21.4539V15.2731L21.0996 15.2763Z" />
  </symbol>

  <symbol id="scales"  viewBox="0 0 30 30"  xmlns="http://www.w3.org/2000/svg">
    <path d="M19.3748 11.6218C19.3787 10.9676 19.2219 10.3225 18.9182 9.74311C18.6141 9.16295 18.172 8.66646 17.6309 8.29737C17.0898 7.92828 16.4662 7.69791 15.815 7.62656C15.1639 7.5552 14.5052 7.64504 13.897 7.88817C13.2887 8.1313 12.7496 8.52025 12.3271 9.02079C11.9046 9.52132 11.6116 10.1181 11.474 10.7585C11.3364 11.3989 11.3583 12.0633 11.5379 12.6932C11.7176 13.3231 12.0493 13.8992 12.504 14.3708L12.5039 14.3709L12.5121 14.379C12.579 14.4446 12.6306 14.5242 12.6631 14.6121L13.0539 14.4675L12.6631 14.6121C12.6957 14.7 12.7084 14.794 12.7003 14.8874C12.6923 14.9808 12.6637 15.0712 12.6167 15.1522C12.5696 15.2333 12.5052 15.3029 12.428 15.3562L12.3866 15.3847L12.3532 15.4224C12.2922 15.4911 12.2173 15.5461 12.1335 15.5839C12.0499 15.6216 11.9593 15.6412 11.8676 15.6416H3.86747C3.85829 15.6239 3.84808 15.6011 3.8376 15.5725C3.78451 15.4274 3.75016 15.2056 3.75016 14.9621C3.75016 14.7185 3.78451 14.4968 3.83758 14.3519C3.848 14.3234 3.85813 14.3007 3.86726 14.2832H10.1314H10.7562L10.5161 13.7064C10.2412 13.0462 10.0994 12.3381 10.0989 11.6229H10.0989L10.0989 11.6182C10.0904 10.9163 10.2213 10.2197 10.4841 9.5688C10.7468 8.91789 11.1361 8.3256 11.6295 7.82627C12.1228 7.32693 12.7104 6.93049 13.3581 6.65991C14.0058 6.38934 14.7007 6.25001 15.4027 6.25001C16.1046 6.25001 16.7996 6.38934 17.4473 6.65991C18.0949 6.93049 18.6825 7.32693 19.1758 7.82627C19.6692 8.3256 20.0585 8.91789 20.3212 9.5688C20.584 10.2197 20.7149 10.9163 20.7064 11.6182L20.7064 11.6182L20.7064 11.6256C20.7105 12.339 20.56 13.0448 20.2653 13.6944L19.9982 14.2832H20.6447H26.7109C26.7199 14.3007 26.7298 14.3233 26.7401 14.3514C26.7929 14.4968 26.827 14.719 26.827 14.9628C26.827 15.2067 26.7929 15.4288 26.7401 15.5742C26.7298 15.6023 26.7199 15.6249 26.7109 15.6424H18.6135C18.4968 15.6416 18.3824 15.6098 18.2821 15.5503C18.1814 15.4906 18.0984 15.4052 18.0417 15.3029L18.0336 15.2883L18.0244 15.2745C17.9352 15.14 17.896 14.9784 17.9139 14.8179C17.9314 14.6605 18.0026 14.5141 18.1154 14.4032C18.5119 14.0586 18.8296 13.6327 19.047 13.1544C19.2656 12.6732 19.3774 12.1503 19.3748 11.6218ZM19.3748 11.6218C19.3748 11.6209 19.3747 11.62 19.3747 11.6191L18.9581 11.6216L19.3747 11.6243C19.3747 11.6235 19.3747 11.6226 19.3748 11.6218ZM3.8383 20.1577C3.84838 20.1308 3.85734 20.1106 3.8648 20.0957H26.7161C26.7235 20.1106 26.7324 20.1306 26.7424 20.1572C26.794 20.2948 26.8279 20.5068 26.8279 20.7411C26.8279 20.9754 26.794 21.1878 26.7423 21.326C26.732 21.3534 26.7229 21.374 26.7153 21.3891H3.8648C3.85734 21.3741 3.84838 21.354 3.8383 21.3271C3.78661 21.1893 3.75266 20.9769 3.75266 20.7424C3.75266 20.5079 3.78661 20.2955 3.8383 20.1577ZM26.692 20.0582C26.6921 20.0576 26.6948 20.06 26.6997 20.067C26.6942 20.0623 26.6918 20.0588 26.692 20.0582ZM26.6913 21.4261C26.6911 21.4255 26.6935 21.4221 26.6989 21.4175C26.6941 21.4244 26.6914 21.4267 26.6913 21.4261ZM3.88891 21.4264C3.88876 21.427 3.88603 21.4247 3.88117 21.4176C3.88664 21.4223 3.88906 21.4258 3.88891 21.4264ZM3.88117 20.0671C3.88603 20.0601 3.88876 20.0578 3.88891 20.0584C3.88906 20.059 3.88664 20.0625 3.88117 20.0671Z" fill="#191919" stroke="#232323" stroke-width="0.833333"/>
  </symbol>

    <symbol id="scorpion"  viewBox="0 0 30 30"  xmlns="http://www.w3.org/2000/svg">
      <path d="M28.4174 23.9815L25.5798 21.1015C25.1934 20.7071 23.7646 22.1039 24.151 22.4983L25.3718 23.7295C24.3854 23.8095 22.787 23.7599 21.899 23.0175C21.6589 22.8019 21.4715 22.5341 21.3514 22.2346C21.2313 21.9351 21.1816 21.612 21.2062 21.2903V9.86711C21.2062 7.56391 20.0742 5.11351 17.7222 5.11351C17.0741 5.16182 16.4435 5.34642 15.8716 5.65522C15.2998 5.96403 14.7996 6.39008 14.4038 6.90551C13.9126 5.80951 13.3342 5.11271 12.0542 5.11271C11.455 5.13796 10.8696 5.29996 10.3426 5.58629C9.81573 5.87263 9.36131 6.27572 9.01416 6.76471C8.34605 5.50626 7.42359 4.40046 6.30536 3.51751C5.86616 3.18391 4.65576 4.76951 5.09416 5.10711C5.78376 5.63111 7.23816 7.35111 7.23816 8.99271V21.4287C7.23816 21.9807 9.36856 21.9807 9.36856 21.4287V9.06711C9.95256 7.89751 10.915 7.14151 11.6662 7.14151C12.531 7.14151 13.2598 8.70871 13.2598 9.86631V21.4895C13.2598 22.0407 15.2598 22.0407 15.2598 21.4895V9.86711C15.2598 9.76951 15.2598 9.13511 15.255 9.03671C15.843 7.87111 16.587 7.14231 17.335 7.14231C18.7446 7.14231 19.2102 8.70951 19.2102 9.86711V21.2879C19.1842 21.9016 19.2969 22.5133 19.54 23.0775C19.7831 23.6416 20.1502 24.1437 20.6142 24.5463C21.7863 25.3976 23.2136 25.8237 24.6606 25.7543C24.8854 25.7543 25.095 25.7463 25.2862 25.7351L24.0302 26.9975C23.747 27.2975 25.1846 28.6775 25.3806 28.4727L28.4206 25.3751C28.6018 25.1883 28.7029 24.938 28.7023 24.6777C28.7017 24.4173 28.5995 24.1675 28.4174 23.9815Z" />
  </symbol>

    <symbol id="sagit"  viewBox="0 0 30 30"  xmlns="http://www.w3.org/2000/svg">
      <path d="M24.921 5.32137C24.8121 5.21292 24.6817 5.12844 24.5381 5.07333C24.3946 5.01822 24.2412 4.99371 24.0877 5.00137L24.921 5.32137ZM24.921 5.32137C25.0291 5.42891 25.1136 5.55784 25.169 5.6999M24.921 5.32137L25.169 5.6999M25.169 5.6999C25.2243 5.84197 25.2495 5.99404 25.2427 6.14637L25.169 5.6999ZM24.6271 5.61667L24.6271 5.61677C24.6941 5.68339 24.7464 5.76326 24.7807 5.85126C24.8151 5.93927 24.8306 6.03348 24.8264 6.12784L24.8264 6.12929L24.4264 15.8796C24.4125 15.8857 24.3941 15.8928 24.3704 15.9007C24.2366 15.9448 24.0313 15.969 23.8059 15.9585C23.5802 15.948 23.3792 15.9049 23.2517 15.8484C23.2269 15.8374 23.2085 15.8279 23.1952 15.8201L23.3842 8.90192L23.4127 7.85706L22.6732 8.59574L13.8532 17.4057L13.5575 17.7011L13.8538 17.9959L16.7398 20.8672C16.7357 20.8872 16.7274 20.9169 16.7111 20.9589C16.6545 21.1053 16.5347 21.2945 16.3761 21.4765C16.2174 21.6587 16.0474 21.8022 15.9126 21.877C15.8873 21.891 15.8663 21.9009 15.8496 21.9078L12.8798 18.9551L12.586 18.6629L12.2922 18.9551L7.26117 23.9583C7.23858 23.9507 7.20939 23.9391 7.17347 23.9217C7.02375 23.8491 6.83592 23.7139 6.66087 23.5466C6.48435 23.3779 6.35054 23.2049 6.28543 23.0727C6.27524 23.0521 6.26778 23.035 6.26235 23.0213L11.3181 17.9935L11.6153 17.698L11.3181 17.4025L8.4152 14.5168C8.42112 14.4979 8.43005 14.4745 8.44294 14.4467C8.50809 14.3065 8.64125 14.1251 8.8147 13.9527C8.98808 13.7802 9.17068 13.6476 9.31239 13.5825C9.34399 13.568 9.36892 13.559 9.38748 13.5534L12.2923 16.441L12.5839 16.7309L12.8776 16.4432L21.7859 7.71652L22.523 6.9945L21.4912 7.00221L14.7718 7.05245C14.7658 7.03943 14.759 7.023 14.7519 7.00258C14.7024 6.86157 14.6724 6.64015 14.678 6.39242C14.6835 6.1459 14.7234 5.91702 14.7822 5.76306C14.7996 5.71742 14.8158 5.68612 14.8282 5.66592L24.0988 5.41789L24.0988 5.418L24.1084 5.41752C24.204 5.41275 24.2995 5.42801 24.3888 5.4623L24.5378 5.07436L24.3888 5.4623C24.4781 5.4966 24.5592 5.54918 24.6271 5.61667ZM24.4568 15.8641C24.4616 15.859 24.4652 15.8568 24.4658 15.857C24.4663 15.8572 24.4639 15.8597 24.4568 15.8641ZM23.1634 15.7967C23.1639 15.7966 23.1671 15.7991 23.1711 15.8044C23.1648 15.7995 23.1628 15.7968 23.1634 15.7967ZM16.7431 20.8337C16.7435 20.8335 16.7439 20.8361 16.7436 20.8423C16.7426 20.837 16.7428 20.8339 16.7431 20.8337ZM6.249 22.9729C6.24961 22.9732 6.25072 22.9778 6.25052 22.9856C6.24829 22.9764 6.2484 22.9725 6.249 22.9729ZM6.20099 23.0823C6.20087 23.0824 6.20074 23.0826 6.20061 23.0827L6.20065 23.0826L6.20099 23.0823Z" stroke-width="0.833333"/>
  </symbol>

    <symbol id="capricorn"  viewBox="0 0 30 30"  xmlns="http://www.w3.org/2000/svg">
      <path d="M22.4591 13.0133L22.4574 13.0133C21.7433 13.0131 21.0373 13.1659 20.3872 13.4614C19.737 13.7569 19.1577 14.1882 18.6882 14.7264L18.0117 15.5019L17.9581 14.4742C17.9228 13.7963 17.9044 13.1088 17.8885 12.4505L22.4591 13.0133ZM22.4591 13.0133C23.3252 13.0101 24.1771 13.2327 24.9308 13.6593C25.6846 14.0858 26.3141 14.7015 26.7572 15.4456C27.2003 16.1897 27.4418 17.0365 27.4577 17.9024C27.4737 18.7683 27.2636 19.6234 26.8482 20.3833C26.4327 21.1432 25.8264 21.7817 25.0888 22.2357C24.3513 22.6897 23.5082 22.9436 22.6426 22.9722C21.777 23.0009 20.9189 22.8034 20.153 22.3992C19.3871 21.9949 18.7398 21.398 18.275 20.6672L17.939 20.1389L17.5814 20.6529C16.6357 22.0119 15.2918 23.044 13.7349 23.607C11.894 24.1195 9.99591 24.3975 8.08566 24.4345C8.08149 24.4201 8.07703 24.4026 8.07252 24.3814C8.04077 24.2325 8.03845 24.0107 8.07355 23.7717C8.10864 23.5328 8.17472 23.3202 8.24832 23.1854C8.26724 23.1507 8.28344 23.1272 8.29542 23.1119C9.97979 23.0625 11.6514 22.8028 13.2714 22.3389L13.3024 22.33L13.3317 22.3165C15.0517 21.5207 16.3906 20.0817 17.0606 18.309L17.1044 18.1933L17.0779 18.0725C16.677 16.2436 16.4909 14.3742 16.5233 12.5022L16.5235 12.4934L16.5233 12.4846C16.4927 11.2613 16.2533 9.89046 15.8845 8.81496C15.7008 8.27917 15.4773 7.79365 15.2156 7.4334C14.9662 7.08992 14.6102 6.76417 14.1459 6.76417C13.4736 6.76417 12.9413 7.2127 12.5336 7.78083C12.119 8.3587 11.7675 9.14816 11.4679 10.0264C10.8757 11.7626 10.4523 13.9502 10.1742 15.8257C10.1575 15.8333 10.1347 15.8423 10.1045 15.8517C9.96757 15.8944 9.76409 15.9195 9.54029 15.9156C9.31726 15.9117 9.10901 15.8795 8.96386 15.8307C8.91775 15.8152 8.88533 15.8005 8.86398 15.7889C8.55482 13.988 8.02789 12.2313 7.29473 10.5573C6.92399 9.69701 6.32481 8.91933 5.70167 8.35409C5.38918 8.07064 5.06276 7.83338 4.74599 7.66486C4.46168 7.51361 4.15948 7.40401 3.86852 7.38659C3.86012 7.37039 3.84969 7.34733 3.8378 7.31529C3.78464 7.17201 3.75012 6.9525 3.75016 6.71102C3.75021 6.46952 3.78483 6.25013 3.83804 6.10703C3.84914 6.07715 3.85897 6.05511 3.86706 6.03917C5.66205 6.07757 7.43935 7.4412 8.32749 9.69131C8.39287 9.85758 8.4658 10.0336 8.54264 10.219C8.71421 10.6331 8.90525 11.0941 9.07517 11.5988L9.47514 12.7867M22.4591 13.0133L9.47514 12.7867M9.47514 12.7867L9.86595 11.5957M9.47514 12.7867L9.86595 11.5957M9.86595 11.5957C9.92921 11.403 9.99191 11.2096 10.0545 11.0164C10.4873 9.68162 10.9168 8.35661 11.5071 7.31231C12.1765 6.12785 12.9882 5.41667 14.1467 5.41667C15.5093 5.41667 16.4093 6.24419 17.0025 7.58118M9.86595 11.5957L17.0025 7.58118M17.0025 7.58118C17.6016 8.9313 17.8453 10.727 17.8885 12.4504L17.0025 7.58118ZM8.10318 24.4823C8.10801 24.4877 8.10993 24.4916 8.10969 24.4922C8.10945 24.4928 8.10704 24.49 8.10318 24.4823ZM3.89119 7.42052C3.89104 7.42112 3.88829 7.41882 3.8834 7.41184C3.8889 7.41644 3.89134 7.41993 3.89119 7.42052ZM3.89136 6.00211C3.89151 6.0027 3.88906 6.0062 3.88355 6.0108C3.88845 6.00381 3.89121 6.00151 3.89136 6.00211ZM22.4542 21.5758L22.4564 21.5758C23.4161 21.5786 24.3377 21.2006 25.0191 20.5247C25.7005 19.8488 26.0859 18.9302 26.0909 17.9705V17.9683C26.0909 17.2561 25.88 16.5598 25.4849 15.9672C25.0898 15.3746 24.5281 14.9122 23.8706 14.6383C23.2131 14.3644 22.4893 14.2913 21.7903 14.4281C21.0913 14.565 20.4485 14.9057 19.9428 15.4073C19.4371 15.9089 19.0913 16.5489 18.9488 17.2468C18.8063 17.9446 18.8736 18.6691 19.1422 19.3287C19.4108 19.9884 19.8686 20.5538 20.458 20.9537C21.0474 21.3536 21.742 21.5701 22.4542 21.5758Z"  stroke-width="0.833333"/>
  </symbol>

    <symbol id="aqua"  viewBox="0 0 30 30" xmlns="http://www.w3.org/2000/svg">
      <path d="M14.772 12.2775C14.2102 12.2762 13.6489 11.9952 13.1386 11.6541C12.6239 11.31 12.0937 10.8569 11.5872 10.4241L11.5727 10.4117C11.0519 9.9667 10.5558 9.54371 10.0853 9.22986C9.60542 8.90973 9.21822 8.74972 8.91419 8.75001L8.91379 8.75002C8.56079 8.75001 8.014 8.94848 7.3388 9.31704C6.68281 9.67513 5.96927 10.1573 5.30434 10.6465C4.64099 11.1345 4.03416 11.6233 3.59267 11.9907C3.37213 12.1742 3.19334 12.327 3.06994 12.4336C3.00878 12.4865 2.96125 12.528 2.92904 12.5563C2.93172 12.5682 2.93535 12.5822 2.94024 12.5986C2.98206 12.7386 3.08014 12.9312 3.21288 13.1364C3.32501 13.3097 3.44906 13.4723 3.55568 13.594C3.65241 13.5066 3.77346 13.3984 3.91416 13.275C4.29292 12.9427 4.81597 12.4987 5.39113 12.0538C5.96465 11.6101 6.5984 11.1589 7.1975 10.8167C7.77694 10.4857 8.39456 10.2142 8.91462 10.2142C9.45447 10.2142 10.0052 10.5122 10.5021 10.8601C10.991 11.2025 11.5046 11.6506 12.0013 12.084C12.0238 12.1036 12.0462 12.1231 12.0686 12.1427C12.5958 12.6025 13.104 13.0415 13.5841 13.3671C14.0755 13.7003 14.4691 13.8658 14.7705 13.8658C15.0718 13.8658 15.4657 13.7003 15.9574 13.367C16.4379 13.0414 16.9465 12.6024 17.474 12.1426C17.497 12.1225 17.5201 12.1024 17.5432 12.0822C18.0395 11.6494 18.5525 11.2021 19.0405 10.8602C19.537 10.5124 20.0873 10.2142 20.6263 10.2142C21.1379 10.2142 21.7448 10.4816 22.3127 10.8062C22.9003 11.1421 23.522 11.5848 24.0845 12.0201C24.6486 12.4565 25.1618 12.8921 25.5333 13.218C25.7143 13.3767 25.8621 13.5098 25.9665 13.6049C26.0819 13.5033 26.2227 13.3366 26.3488 13.1438C26.4777 12.9467 26.5698 12.7547 26.6072 12.6153C26.6128 12.5941 26.6166 12.5765 26.619 12.5625M14.772 12.2775C14.7719 12.2775 14.7718 12.2775 14.7717 12.2775L14.773 11.8608L14.772 12.2775ZM14.772 12.2775C15.3316 12.2791 15.8917 11.9987 16.4003 11.6588C16.9142 11.3152 17.4445 10.8619 17.9514 10.4286L17.9646 10.4173C18.4854 9.97207 18.9821 9.54831 19.4533 9.23339C19.9339 8.91213 20.322 8.75075 20.6265 8.75001L20.6266 8.75001C20.9824 8.74907 21.5307 8.94699 22.2062 9.31508C22.8627 9.67282 23.5759 10.155 24.2402 10.6444C24.9029 11.1326 25.5087 11.6219 25.9493 11.9896C26.1694 12.1733 26.3478 12.3262 26.4709 12.433C26.5324 12.4863 26.5801 12.5282 26.6123 12.5565L26.619 12.5625M26.619 12.5625C26.624 12.5339 26.6236 12.5195 26.6236 12.517C26.6236 12.5166 26.6236 12.5165 26.6236 12.5167C26.6247 12.5251 26.6332 12.5601 26.6631 12.5958L26.6631 12.5959C26.6749 12.6098 26.6899 12.6239 26.709 12.6365L26.6833 12.6196L26.6603 12.599L26.6603 12.599L26.6602 12.599L26.6597 12.5985L26.6576 12.5966L26.6486 12.5886L26.619 12.5625ZM14.7717 19.5483C15.3314 19.55 15.8917 19.2696 16.4003 18.9296C16.9142 18.5861 17.4445 18.1327 17.9514 17.6994L17.9646 17.6881C18.4854 17.2429 18.9821 16.8191 19.4533 16.5042C19.9339 16.183 20.322 16.0216 20.6265 16.0208L20.6266 16.0208C20.9824 16.0199 21.5307 16.2178 22.2062 16.5859C22.8627 16.9436 23.5759 17.4259 24.2402 17.9153C24.9029 18.4035 25.5087 18.8927 25.9493 19.2604C26.1694 19.4441 26.3478 19.597 26.4709 19.7038C26.5324 19.7572 26.5801 19.799 26.6123 19.8273L26.6184 19.8327C26.616 19.8453 26.6126 19.8606 26.6076 19.8788C26.5708 20.0139 26.4795 20.2009 26.351 20.3934C26.2251 20.5819 26.0845 20.7445 25.9697 20.8428C25.8651 20.7475 25.7161 20.6133 25.5333 20.453C25.1618 20.1271 24.6486 19.6915 24.0845 19.2551C23.522 18.8198 22.9003 18.3771 22.3127 18.0412C21.7448 17.7166 21.1379 17.4492 20.6263 17.4492C20.0873 17.4492 19.537 17.7474 19.0405 18.0952C18.5525 18.4371 18.0395 18.8844 17.5432 19.3173C17.5201 19.3374 17.497 19.3575 17.474 19.3776C16.9465 19.8374 16.4379 20.2764 15.9574 20.602C15.4657 20.9353 15.0718 21.1008 14.7705 21.1008C14.4691 21.1008 14.0755 20.9353 13.5841 20.6021C13.104 20.2765 12.5958 19.8375 12.0686 19.3777C12.0462 19.3581 12.0238 19.3386 12.0013 19.319C11.5046 18.8856 10.991 18.4375 10.5021 18.0951C10.0052 17.7472 9.45447 17.4492 8.91462 17.4492C8.39456 17.4492 7.77694 17.7207 7.1975 18.0517C6.5984 18.3939 5.96465 18.8451 5.39113 19.2888C4.81597 19.7337 4.29292 20.1777 3.91416 20.51C3.7715 20.6351 3.64904 20.7446 3.55165 20.8327C3.44544 20.7142 3.32169 20.5556 3.20956 20.3862C3.07656 20.1852 2.97824 19.9966 2.93594 19.8597C2.93159 19.8457 2.92823 19.8334 2.92564 19.8228C2.95775 19.7947 3.00381 19.7545 3.06236 19.704C3.18587 19.5974 3.36484 19.4448 3.5856 19.2614C4.02753 18.8943 4.635 18.4058 5.29908 17.918C5.96475 17.4291 6.67914 16.9471 7.33604 16.5889C8.01204 16.2203 8.56005 16.0213 8.91434 16.0208L8.91439 16.0208C9.21833 16.0204 9.60545 16.1803 10.0853 16.5003C10.5558 16.8142 11.0519 17.2372 11.5727 17.6822L11.5876 17.695C12.0939 18.1277 12.624 18.5807 13.1386 18.9248C13.6487 19.2659 14.21 19.5469 14.7717 19.5483ZM14.7717 19.5483L14.773 19.1317M14.7717 19.5483C14.7718 19.5483 14.7719 19.5483 14.772 19.5483L14.773 19.1317M14.773 19.1317C13.9077 19.1296 12.8774 18.2491 11.8469 17.3684C10.814 16.4858 9.78101 15.6029 8.91379 15.6042L14.773 19.1317ZM3.72527 13.7636C3.72675 13.7645 3.72752 13.765 3.72753 13.7651C3.72755 13.7651 3.7268 13.7647 3.72527 13.7636ZM3.72202 20.9983C3.72201 20.9983 3.72127 20.9978 3.71976 20.9968C3.72127 20.9977 3.72203 20.9982 3.72202 20.9983Z"  stroke-width="0.833333"/>
  </symbol>

    <symbol id="fish"  viewBox="0 0 30 30" xmlns="http://www.w3.org/2000/svg">
      <path d="M22.8946 24.7454C22.8714 24.7182 20.7346 22.0254 20.357 17.0654H22.4826C23.1226 17.0654 23.1226 14.8462 22.4826 14.8462H20.313C20.4954 9.41977 22.8522 6.66137 22.8978 6.60617C23.3138 6.12617 21.5682 4.61177 21.149 5.09337C21.0242 5.23657 18.189 8.47417 17.997 14.8454H13.6842C13.4962 8.47337 10.377 5.23577 10.2514 5.09497C9.8338 4.61497 8.0914 6.12377 8.5026 6.60777C8.5282 6.63497 11.1842 9.39417 11.3682 14.8446H8.6802C8.0402 14.8446 8.0402 17.0638 8.6802 17.0638H11.3202C11.1752 19.8512 10.1926 22.53 8.501 24.7502C8.085 25.2302 10.021 26.5254 10.249 26.263C12.318 23.6288 13.5046 20.4098 13.6402 17.063H18.0354C18.4298 22.8934 21.0274 26.1254 21.1466 26.263C21.3778 26.5254 23.3138 25.227 22.8946 24.7454Z" />
  </symbol>

    <symbol id="prev"  viewBox="0 0 45 30" fill="none" xmlns="http://www.w3.org/2000/svg">
      <path d="M43 14H0M0 14C10 14 14.0044 9 14.0044 0M0 14C10 14 14.0044 19 14.0044 28"  stroke-width="3" stroke-linejoin="bevel"/>
  </symbol>

  <symbol id="next"  viewBox="0 0 45 30" fill="none" xmlns="http://www.w3.org/2000/svg">
    <path d="M0 14H43M43 14C33 14 28.9956 9 28.9956 0M43 14C33 14 28.9956 19 28.9956 28"  stroke-width="3" stroke-linejoin="bevel"/>
  </symbol>

</svg>
