<svg width="30" height="30" viewBox="0 0 30 30" fill="none" xmlns="http://www.w3.org/2000/svg">
<path d="M25.3666 7.4571C25.9541 7.61377 26.4999 5.50377 25.9166 5.35877C21.0235 4.12112 19.4525 6.45785 18.1912 8.33399L18.1891 8.3371C17.9578 8.6821 17.7718 9.04272 17.5921 9.39111C17.0305 10.4801 16.5305 11.4496 14.9016 11.4496C14.8768 11.4496 14.8531 11.4527 14.8295 11.4559C14.8166 11.4576 14.8037 11.4593 14.7908 11.4604H14.7074C14.6707 11.455 14.6337 11.4513 14.5966 11.4496C12.913 11.4496 12.4353 10.587 11.8488 9.52774C11.6863 9.23429 11.5154 8.92575 11.3083 8.61627C11.2634 8.54955 11.2181 8.48182 11.1723 8.41331C9.9322 6.55805 8.30392 4.12207 3.58326 5.3171L25.3666 7.4571ZM3.76593 5.70095C6.07934 5.13179 7.55005 5.48683 8.58386 6.15018C9.58675 6.79369 10.2283 7.75213 10.8333 8.65601C10.8764 8.72046 10.9194 8.78464 10.9623 8.84841C11.1588 9.14209 11.3205 9.43407 11.4834 9.72813C11.5084 9.7732 11.5334 9.81832 11.5585 9.8635C11.7432 10.1953 11.9387 10.5349 12.1819 10.8319C12.4301 11.135 12.7324 11.4 13.1356 11.5859C13.5341 11.7696 14.0074 11.865 14.5855 11.8663C14.6057 11.8675 14.6259 11.8695 14.646 11.8725L14.6765 11.8771H14.7074H14.7908H14.8097L14.8285 11.8754C14.8452 11.8739 14.8602 11.872 14.8713 11.8706L14.8863 11.8686L14.8972 11.8672C14.9014 11.8667 14.904 11.8664 14.9055 11.8663C15.4977 11.8658 15.9815 11.7486 16.3861 11.5301C16.7908 11.3115 17.0893 11.0062 17.3315 10.6712C17.5697 10.3416 17.7628 9.96902 17.9455 9.61493L17.9584 9.58997C18.141 9.23598 18.3174 8.89403 18.5351 8.56921C19.1727 7.62088 19.8317 6.65081 20.8969 6.04148C21.9297 5.45072 23.407 5.16879 25.7341 5.74264C25.7382 5.7608 25.742 5.78364 25.7448 5.81149C25.76 5.96248 25.7381 6.18289 25.6774 6.41606C25.6167 6.64926 25.5282 6.85227 25.4411 6.97672C25.4231 7.00243 25.4083 7.02101 25.3966 7.03424C24.1093 6.70511 23.0772 6.84005 22.2375 7.27465C21.3939 7.71132 20.7915 8.42659 20.3226 9.15236C20.0235 9.61547 19.7554 10.1245 19.518 10.5754C19.3938 10.8112 19.278 11.0312 19.1705 11.2202C19.0046 11.5121 18.8546 11.7411 18.7081 11.9036C18.5615 12.0663 18.4477 12.1293 18.3603 12.1475L17.3606 12.3549L18.2199 12.9061C19.101 13.4713 19.8263 14.2485 20.3294 15.1664C20.8324 16.084 21.0973 17.113 21.0999 18.1594C21.0958 19.2466 20.8106 20.3143 20.272 21.2588C19.7332 22.2036 18.9591 22.993 18.025 23.5502C17.0909 24.1075 16.0285 24.4136 14.9411 24.4388C13.8537 24.464 12.7783 24.2075 11.8194 23.6941C10.8605 23.1808 10.0506 22.4282 9.4686 21.5093C8.88657 20.5905 8.55215 19.5367 8.49783 18.4503C8.44352 17.364 8.67115 16.2821 9.15861 15.3098C9.64607 14.3374 10.3768 13.5077 11.2797 12.9013L12.0826 12.3621L11.1392 12.149C11.0932 12.1386 10.9998 12.0907 10.8561 11.9198C10.7171 11.7545 10.5698 11.5215 10.4018 11.2254C10.3103 11.0643 10.2133 10.885 10.1101 10.6943C9.84874 10.2111 9.54791 9.65511 9.19861 9.13763C8.70516 8.4066 8.07661 7.68855 7.22563 7.24776C6.37934 6.8094 5.35264 6.66562 4.098 6.99181C4.08577 6.97814 4.07153 6.96031 4.05574 6.93767C3.96935 6.81372 3.88144 6.61095 3.82115 6.37764C3.76089 6.14445 3.73932 5.92369 3.75469 5.77207C3.75762 5.74317 3.76163 5.71959 3.76593 5.70095ZM25.3641 7.06377C25.3641 7.06314 25.3674 7.0603 25.374 7.05717C25.3673 7.06284 25.3641 7.0644 25.3641 7.06377ZM14.7451 23.1062L14.7479 23.1063C16.0666 23.1128 17.334 22.5958 18.2718 21.6687C19.2097 20.7416 19.7413 19.4802 19.7499 18.1615V18.1587C19.7499 17.1827 19.4611 16.2284 18.9199 15.4161C18.3788 14.6038 17.6095 13.9697 16.7088 13.5936C15.8081 13.2175 14.8162 13.1162 13.8581 13.3025C12.9 13.4888 12.0184 13.9544 11.3242 14.6406C10.6301 15.3268 10.1544 16.203 9.95708 17.1589C9.75975 18.1148 9.84959 19.1077 10.2153 20.0127C10.581 20.9177 11.2062 21.6942 12.0122 22.2447C12.8182 22.7952 13.7691 23.0949 14.7451 23.1062Z" fill="#191919" stroke="#232323" stroke-width="0.833333"/>
</svg>
