<svg width="30" height="30" viewBox="0 0 30 30" fill="none" xmlns="http://www.w3.org/2000/svg">
<path d="M19.0179 21.1948V20.868V9.16299C19.0176 9.11984 19.0132 9.07681 19.0046 9.03452L18.9246 8.64183L19.3139 8.54663C20.7531 8.19466 22.0592 7.4337 23.0749 6.35629C23.0696 6.33901 23.0618 6.31779 23.0506 6.2927C22.9909 6.15821 22.8669 5.98266 22.704 5.8146C22.5411 5.64652 22.3696 5.51727 22.2372 5.45352C22.2128 5.44181 22.1922 5.43346 22.1753 5.4277C21.7465 5.80206 19.2627 7.77974 14.7615 7.7847C14.7573 7.78525 14.7521 7.78591 14.7471 7.7865C14.7356 7.78783 14.7194 7.78944 14.7003 7.7902C14.6705 7.7914 14.6452 7.78975 14.6267 7.78789C14.6167 7.78689 14.6075 7.78569 14.6006 7.78469C10.0951 7.77821 7.63118 5.81091 7.1938 5.42766C7.17707 5.43348 7.15677 5.4418 7.13298 5.45333C7.00035 5.51759 6.82861 5.64737 6.66563 5.81569C6.5026 5.98407 6.37876 6.1596 6.31928 6.29384C6.3114 6.31163 6.30522 6.32744 6.30043 6.34126C7.49216 7.26949 8.84715 7.9671 10.2958 8.39782L10.6992 8.51778L10.5752 8.92001C10.5577 8.97675 10.5482 9.03566 10.547 9.09501V20.9939V21.3034L10.2506 21.3928C8.7988 21.8306 7.44215 22.5368 6.25097 23.4746C6.24901 23.492 6.24821 23.525 6.25633 23.5799C6.27546 23.7093 6.33485 23.8795 6.42486 24.0591C6.51353 24.2361 6.6195 24.3976 6.71165 24.5087C6.73602 24.538 6.7571 24.5611 6.77436 24.5785C6.90647 24.56 7.03045 24.5009 7.12854 24.4083L7.41452 24.7114M19.0179 21.1948L22.6845 24.5889H22.6841M19.0179 21.1948L19.3352 21.2727C20.78 21.6272 22.0923 22.3896 23.1159 23.469M19.0179 21.1948L23.1159 23.469M7.41452 24.7114L7.12761 24.4092C7.27651 24.2678 9.7638 21.9996 14.6038 21.9939L14.61 21.993C14.6187 21.9918 14.6323 21.99 14.6483 21.9886M7.41452 24.7114C7.51369 24.6172 9.90952 22.4105 14.622 22.4105C14.6346 22.4105 14.647 22.4087 14.6591 22.4069C14.6671 22.4057 14.675 22.4045 14.6829 22.4039M7.41452 24.7114C7.2167 24.8981 6.95486 25.0018 6.68285 25.0014C6.40369 25.0014 5.52702 23.5914 5.94369 23.1864L22.6845 25.0055C22.4113 25.0058 22.1485 24.9004 21.9512 24.7114C21.8454 24.6114 19.4504 22.4105 14.7437 22.4105C14.7341 22.4105 14.7247 22.4088 14.7154 22.407C14.7045 22.405 14.6937 22.403 14.6829 22.4039M14.6483 21.9886L14.6829 22.4039M14.6483 21.9886C14.6483 21.9886 14.6483 21.9886 14.6482 21.9886L14.6829 22.4039M14.6483 21.9886C14.6873 21.9854 14.7202 21.9875 14.743 21.99C14.7538 21.9912 14.7638 21.9926 14.7717 21.9939M14.7717 21.9939C14.7624 21.9939 14.753 21.9939 14.7437 21.9939C14.7657 21.9939 14.7822 21.996 14.789 21.9971C14.7937 21.9978 14.7993 21.9988 14.789 21.9969C14.786 21.9964 14.7799 21.9952 14.7717 21.9939ZM14.7717 21.9939C19.5995 22.0026 22.0824 24.2621 22.2374 24.4085L22.2395 24.4105C22.3369 24.5039 22.4606 24.5636 22.5926 24.5824M22.5926 24.5824C22.5766 24.5986 22.5639 24.61 22.5547 24.6172C22.5534 24.6182 22.5523 24.6192 22.5512 24.62M22.5926 24.5824C22.61 24.5649 22.6311 24.5419 22.6554 24.5125C22.7479 24.401 22.8542 24.2391 22.9431 24.0618C23.0334 23.8818 23.0928 23.7115 23.1118 23.582C23.1213 23.5174 23.1184 23.4834 23.1159 23.469M22.5926 24.5824C22.6228 24.5867 22.6533 24.5889 22.6841 24.5889M22.5512 24.62C22.5454 24.6233 22.5423 24.6256 22.5422 24.6259C22.5422 24.6263 22.5451 24.6246 22.5512 24.62ZM22.5512 24.62C22.5696 24.6095 22.6158 24.589 22.6841 24.5889M22.6841 24.5889L23.1159 23.469M11.8395 8.79164L12.3257 8.87387C13.0786 9.00123 13.841 9.06507 14.6046 9.06472L14.6108 9.06382C14.6195 9.0626 14.6331 9.06081 14.6491 9.05948L11.8395 8.79164ZM11.8395 8.79164V9.2847M11.8395 8.79164V9.2847M11.8395 9.2847V20.4897V20.9828L12.3257 20.9005C13.0773 20.7734 13.8382 20.7095 14.6005 20.7097C14.6075 20.7107 14.6167 20.7119 14.6266 20.7129C14.6452 20.7148 14.6705 20.7164 14.7003 20.7152L14.7003 20.7152C14.7194 20.7144 14.7356 20.7128 14.7471 20.7115C14.7521 20.7109 14.7572 20.7103 14.7614 20.7097C15.5773 20.7102 16.3924 20.7601 17.2023 20.8591L17.6695 20.9163V20.4455V9.32887V8.85816M11.8395 9.2847L17.6695 8.85816M17.6695 8.85816L17.2023 8.91528M17.6695 8.85816L17.2023 8.91528M17.2023 8.91528C16.396 9.01386 15.5846 9.06375 14.7723 9.06469M17.2023 8.91528L14.7723 9.06469M14.7723 9.06469C14.7644 9.06342 14.7546 9.062 14.7439 9.06083C14.7211 9.05834 14.6881 9.05622 14.6491 9.05948L14.7723 9.06469ZM23.1138 23.4605C23.1138 23.4605 23.1139 23.4609 23.1142 23.4616L23.1138 23.4605ZM6.25413 23.4581C6.25415 23.4581 6.25404 23.4585 6.25378 23.4591L6.25413 23.4581ZM6.8154 24.6156C6.82114 24.6188 6.82413 24.6211 6.82419 24.6214C6.82425 24.6217 6.82138 24.6201 6.8154 24.6156ZM14.7445 20.7097H14.7446H14.7445ZM14.6837 20.2989C14.6727 20.2993 14.6621 20.2977 14.6516 20.296C14.6421 20.2945 14.6327 20.293 14.6229 20.293L14.6837 20.2989Z" fill="#191919" stroke="#232323" stroke-width="0.833333"/>
</svg>
