<svg width="30" height="30" viewBox="0 0 30 30" fill="none" xmlns="http://www.w3.org/2000/svg">
<path d="M24.8139 18.8728L24.8127 18.8751C23.9528 20.6275 22.735 22.18 21.2378 23.4324L20.9708 23.6557L21.143 23.9582C21.8631 25.2226 22.7292 25.7388 23.4508 26.1689C23.6712 26.3002 23.8782 26.4235 24.0633 26.5577C24.0628 26.5718 24.0608 26.5922 24.0557 26.6204C24.0333 26.7436 23.9635 26.9152 23.8542 27.1023C23.7473 27.2853 23.619 27.4551 23.5057 27.5736C23.4583 27.6232 23.4194 27.6576 23.3912 27.6791C23.2675 27.6675 23.1488 27.6221 23.0485 27.5472L23.0231 27.5283L22.995 27.5133C21.8066 26.8808 20.802 25.9515 20.0791 24.8158L19.8351 24.4324L19.4743 24.7087C18.9131 25.1385 18.2649 25.4404 17.5749 25.5935L17.5484 25.5994L17.523 25.6086C17.4514 25.6346 17.3777 25.6539 17.3027 25.6663C17.2882 25.6466 17.2709 25.6207 17.2514 25.5874C17.17 25.4479 17.088 25.2429 17.0309 25.0203C16.9734 24.7956 16.9499 24.5863 16.9621 24.4369C16.9663 24.3861 16.9731 24.3538 16.9788 24.3344C17.7013 24.0869 18.3902 23.75 19.0292 23.3314L19.2545 23.1838L19.2125 22.9179C19.1576 22.57 19.1347 22.2177 19.1441 21.8656L19.1443 21.8656V21.8545V9.62782C19.1443 8.91081 18.9311 8.08153 18.5881 7.42394C18.4159 7.09395 18.201 6.78771 17.9451 6.5588C17.6891 6.32976 17.3666 6.15698 16.9934 6.15698C16.4173 6.15698 15.8925 6.48415 15.4573 6.92091C15.0149 7.36493 14.6139 7.97201 14.2797 8.65035L14.2325 8.7461L14.2372 8.85274C14.2408 8.93569 14.2409 9.52467 14.2409 9.62782V21.8894C14.2243 21.8981 14.2007 21.9088 14.1678 21.921C14.0219 21.9751 13.7989 22.0101 13.5539 22.0101C13.3088 22.0101 13.0858 21.9751 12.9399 21.921C12.9071 21.9088 12.8834 21.8981 12.8668 21.8894V9.62949C12.8668 8.91248 12.6536 8.0832 12.3106 7.42561C12.1384 7.09562 11.9235 6.78937 11.6676 6.56046C11.4116 6.33142 11.0891 6.15865 10.7159 6.15865C10.1426 6.15865 9.62002 6.48259 9.18582 6.91702C8.74462 7.35845 8.34409 7.96287 8.00908 8.6407L7.96594 8.72797V8.82532V21.8206C7.94931 21.8293 7.92561 21.8401 7.8926 21.8523C7.74677 21.9065 7.52383 21.9416 7.27886 21.9416C7.03389 21.9416 6.81096 21.9065 6.66512 21.8523C6.63211 21.8401 6.60841 21.8293 6.59178 21.8206V8.65532C6.59178 7.60144 6.0312 6.57331 5.42466 5.76902C4.84048 4.99438 4.16786 4.36736 3.75286 4.03937C3.7558 4.01962 3.76149 3.99249 3.77218 3.95732C3.8181 3.8063 3.92595 3.60537 4.07451 3.40844C4.22315 3.21141 4.38617 3.05337 4.51752 2.96895C4.54301 2.95258 4.56484 2.94058 4.58281 2.93206C5.74262 3.87592 6.69816 5.04645 7.3908 6.3724L7.70349 6.971L8.0982 6.42301C8.45149 5.93253 8.91233 5.5294 9.44544 5.24449C9.97639 4.96072 10.565 4.80171 11.1665 4.77949C11.7914 4.78074 12.1969 4.94326 12.5065 5.20852C12.8326 5.48784 13.0909 5.91321 13.3543 6.51422L13.6372 7.15966L14.0664 6.60078C14.4714 6.07347 14.9839 5.6383 15.5699 5.32413C16.1516 5.01222 16.7926 4.82666 17.4509 4.77952C18.5638 4.78427 19.3081 5.35097 19.7972 6.23823C20.3003 7.15099 20.5201 8.39115 20.5201 9.63698V11.0537V12.3065L21.2704 11.3032C21.3431 11.2061 21.4148 11.1123 21.4877 11.0232L21.4932 11.0164L21.4985 11.0095C22.1503 10.1402 22.9642 9.40532 23.8951 8.84525C24.1029 8.75452 24.3355 8.73659 24.5551 8.79476L24.5684 8.7983L24.582 8.80095C24.7345 8.83068 24.8783 8.8942 25.003 8.98684C25.1265 9.07866 25.2281 9.19675 25.3004 9.33258C26.4518 11.6397 26.7077 15.0738 24.8139 18.8728ZM24.0616 26.5311C24.0618 26.5309 24.0626 26.533 24.0631 26.5383C24.0616 26.534 24.0613 26.5313 24.0616 26.5311ZM23.3565 27.702C23.3565 27.7018 23.3587 27.7005 23.3628 27.6987C23.3585 27.7013 23.3564 27.7022 23.3565 27.702ZM17.3424 25.7124C17.3446 25.714 17.3458 25.715 17.3458 25.7151C17.3458 25.7152 17.3446 25.7144 17.3424 25.7124ZM16.9889 24.3092C16.989 24.3094 16.9883 24.3107 16.9867 24.3129C16.988 24.3102 16.9888 24.3091 16.9889 24.3092ZM14.2759 21.8659C14.2765 21.8661 14.2742 21.8688 14.2674 21.8737C14.2719 21.8682 14.2753 21.8658 14.2759 21.8659ZM12.8318 21.8659C12.8324 21.8658 12.8358 21.8682 12.8403 21.8737C12.8335 21.8688 12.8312 21.8661 12.8318 21.8659ZM8.00068 21.7972C8.00126 21.7974 7.99903 21.8001 7.99225 21.805C7.9967 21.7995 8.00009 21.7971 8.00068 21.7972ZM6.55704 21.7972C6.55763 21.7971 6.56102 21.7995 6.56547 21.805C6.55869 21.8001 6.55646 21.7974 6.55704 21.7972ZM20.5326 14.7701L20.8938 14.8678H20.5209V21.3062V22.3091L21.2316 21.6014C22.1844 20.6526 22.9672 19.5473 23.546 18.3336C24.2573 16.9202 24.7007 15.4525 24.8586 14.1568C25.0145 12.8782 24.9007 11.6947 24.411 10.9105L24.4109 10.9103C24.2761 10.6946 24.0511 10.6655 23.9144 10.6818C23.7926 10.6963 23.6834 10.7472 23.6069 10.7887C23.4447 10.8767 23.2634 11.016 23.0945 11.1588C22.7519 11.4483 22.3772 11.8239 22.1475 12.0652C21.3886 12.8085 20.8338 13.7347 20.5367 14.7546L20.6112 14.7763L20.5334 14.7667L20.5326 14.7701Z" fill="#191919" stroke="#232323" stroke-width="0.833333"/>
</svg>
