<svg width="16" height="16" viewBox="0 0 16 16" fill="none" xmlns="http://www.w3.org/2000/svg">
<path d="M1.99167 15.9467H9.44167V12.8167H3.63V6.40834L7.95333 3.42834L12.275 6.40667V9.24001H15.405V5.66167C15.405 5.06667 15.15 4.49834 14.66 4.17167L8.84833 0.295005C8.25167 -0.101661 7.655 -0.0949947 7.05833 0.295005C5.46833 1.34167 2.10833 3.62001 1.395 4.09667C0.678333 4.57501 0.5 5.13667 0.5 5.66334V14.4567C0.5 15.1733 1.245 15.9467 1.99 15.9467H1.99167Z" fill="url(#paint0_linear_1_397)"/>
<path d="M9.44332 15.9483V10.87C9.44332 9.96999 10.155 9.23999 11.035 9.23999H15.4083L9.44165 15.9483H9.44332Z" fill="#FFDD2D"/>
<defs>
<linearGradient id="paint0_linear_1_397" x1="7.9525" y1="0" x2="7.9525" y2="15.9467" gradientUnits="userSpaceOnUse">
<stop stop-color="#878B92"/>
<stop offset="1" stop-color="#656B73"/>
</linearGradient>
</defs>
</svg>
